<?xml version="1.0" encoding="utf-8"?>
<!-- Generator: Adobe Illustrator 23.0.3, SVG Export Plug-In . SVG Version: 6.00 Build 0)  -->
<svg version="1.1" id="Capa_1" xmlns="http://www.w3.org/2000/svg" xmlns:xlink="http://www.w3.org/1999/xlink" x="0px" y="0px"
	 viewBox="0 0 44.5 16.9" style="enable-background:new 0 0 44.5 16.9;" xml:space="preserve">
<style type="text/css">
	.st0{fill:#B3233F;}
</style>
<path class="st0" d="M15.7,5.9l-0.9-5.1l-0.9,5.1l-3.1-2.2l-1.4,1l1.1-0.3l1.7,3.3H13h0.4l0,0l0,0l0,0h3.7l1.7-3.3L20,4.8l-1.4-1
	L15.7,5.9z M14.7,2.5l0.7,3.7l-1.6,1.1L14.7,2.5z M13.4,7.6h-1l-1.7-3.4h-0.1L10.8,4l3,2.2l-0.2,1.2L13.4,7.6z M18.8,4.2L17,7.6
	h-3.1L18.8,4.2L18.8,4.2L18.8,4.2z"/>
<path class="st0" d="M14.7,0.8c0.2,0,0.3-0.2,0.4-0.3c0-0.2-0.2-0.3-0.3-0.4c-0.2,0-0.3,0.2-0.4,0.3C14.3,0.6,14.5,0.8,14.7,0.8"/>
<path class="st0" d="M20.7,4.8c-0.2,0-0.3,0.2-0.4,0.3c0,0.2,0.2,0.3,0.3,0.4c0.2,0,0.3-0.2,0.4-0.3C21,4.9,20.9,4.8,20.7,4.8"/>
<path class="st0" d="M8.7,4.5c-0.2,0-0.3,0.2-0.4,0.3c0,0.2,0.2,0.3,0.3,0.4C8.8,5.3,9,5.1,9,4.9C9.1,4.7,9,4.5,8.7,4.5"/>
<path class="st0" d="M10.1,10H8.5l0,0H7.7v1.5h0.9v3.1c0,0.5-0.1,1-0.9,0.9c-0.2,0-0.4,0-0.6-0.1v1.4c0.3,0,0.6,0.1,0.9,0.1
	c2,0,2.2-1.2,2.2-2.4v-3l0,0V10L10.1,10L10.1,10z"/>
<path class="st0" d="M14.7,9.9c-2,0-3.6,1.5-3.7,3.5c0,2,1.6,3.5,3.6,3.5c2.1,0,3.6-1.5,3.7-3.5C18.4,11.5,16.7,9.9,14.7,9.9
	 M14.7,15.5c-1.2,0-2.2-0.9-2.2-2.1s0.9-2.1,2.2-2.1s2.2,1,2.2,2.1C16.8,14.6,15.9,15.5,14.7,15.5"/>
<polygon class="st0" points="25.2,10.1 23.3,10.1 20.9,13.1 20.9,10.1 19.3,10.1 19.3,16.8 20.9,16.8 20.9,13.8 23.4,16.8 
	25.2,16.8 22.3,13.4 "/>
<polygon class="st0" points="27.4,14 30.4,14.1 30.4,12.7 27.4,12.7 27.4,11.5 30.6,11.5 30.6,10.1 26,10.1 26,16.8 30.7,16.9 
	30.7,15.5 27.4,15.5 "/>
<path class="st0" d="M37.4,16.9l-1.7-2.6c0.7-0.3,1.3-1,1.3-2c0-1.3-1-2.2-2.3-2.2h-2.8l0,0v1.1l1.4,2h-1.5v3.6h1.5v-2.2h0.9
	l1.6,2.2L37.4,16.9z M35.5,12.4c0,0.4-0.2,0.7-0.5,0.8l-1.2-1.7h0.9C35.1,11.5,35.5,11.9,35.5,12.4"/>
</svg>
