<?xml version="1.0" encoding="UTF-8" standalone="no"?>
<svg
   xmlns:dc="http://purl.org/dc/elements/1.1/"
   xmlns:cc="http://creativecommons.org/ns#"
   xmlns:rdf="http://www.w3.org/1999/02/22-rdf-syntax-ns#"
   xmlns:svg="http://www.w3.org/2000/svg"
   xmlns="http://www.w3.org/2000/svg"
   viewBox="0 0 666.66669 666.66669"
   height="666.66669"
   width="666.66669"
   xml:space="preserve"
   id="svg2"
   version="1.1"><metadata
     id="metadata8"><rdf:RDF><cc:Work
         rdf:about=""><dc:format>image/svg+xml</dc:format><dc:type
           rdf:resource="http://purl.org/dc/dcmitype/StillImage" /></cc:Work></rdf:RDF></metadata><defs
     id="defs6"><clipPath
       id="clipPath18"
       clipPathUnits="userSpaceOnUse"><path
         id="path16"
         d="M 0,500 H 500 V 0 H 0 Z" /></clipPath><clipPath
       id="clipPath26"
       clipPathUnits="userSpaceOnUse"><path
         id="path24"
         d="M 49.9122,427.708 H 450.088 V 53.6698 H 49.9122 Z" /></clipPath><clipPath
       id="clipPath570"
       clipPathUnits="userSpaceOnUse"><path
         id="path568"
         d="m 191.67,234.949 h 8.558 v -22.43 h -8.558 z" /></clipPath><clipPath
       id="clipPath586"
       clipPathUnits="userSpaceOnUse"><path
         id="path584"
         d="m 208.527,236.385 h 13.435 v -13.722 h -13.435 z" /></clipPath><clipPath
       id="clipPath602"
       clipPathUnits="userSpaceOnUse"><path
         id="path600"
         d="m 171.105,238.987 h 12.646 v -12.899 h -12.646 z" /></clipPath><clipPath
       id="clipPath618"
       clipPathUnits="userSpaceOnUse"><path
         id="path616"
         d="m 199.293,191.63 h 6.16 V 77.804 h -6.16 z" /></clipPath><clipPath
       id="clipPath634"
       clipPathUnits="userSpaceOnUse"><path
         id="path632"
         d="M 165.659,194.425 H 196.81 V 80.6291 h -31.151 z" /></clipPath><clipPath
       id="clipPath662"
       clipPathUnits="userSpaceOnUse"><path
         id="path660"
         d="m 172.128,263.279 h 50.256 v -25.647 h -50.256 z" /></clipPath><clipPath
       id="clipPath678"
       clipPathUnits="userSpaceOnUse"><path
         id="path676"
         d="m 224.987,311.181 h 18.815 v -31.589 h -18.815 z" /></clipPath></defs><g
     transform="matrix(1.3333333,0,0,-1.3333333,0,666.66667)"
     id="g10"><g
       id="g12"><g
         clip-path="url(#clipPath18)"
         id="g14"><g
           id="g20"><g
             id="g22" /><g
             id="g34"><g
               style="opacity:0.130005"
               id="g32"
               clip-path="url(#clipPath26)"><g
                 id="g30"
                 transform="translate(120.2026,54.0605)"><path
                   id="path28"
                   style="fill:#c1bdb2;fill-opacity:1;fill-rule:nonzero;stroke:none"
                   d="m 0,0 210.558,2.857 c 36.429,-0.051 72.256,26.439 94.132,67.385 21.876,40.946 29.782,95.111 22.636,144.736 -7.148,49.624 -28.851,94.224 -58.282,123.62 -18.137,18.116 -39.354,30.77 -61.642,34.158 -22.288,3.389 -45.633,-2.838 -64.748,-19.567 C 109.366,324.058 91.337,266.621 55.672,243.696 39.063,233.019 20.398,231.13 2.762,224.515 -31.954,211.493 -64.95,174.174 -69.558,124.593 -72.94,88.21 -64.475,61.133 -46.978,32.507 -32.505,8.832 -21.03,-2.721 0,0" /></g></g></g></g><g
           transform="translate(408.502,55.5039)"
           id="g36"><path
             id="path38"
             style="fill:#b3dac9;fill-opacity:1;fill-rule:nonzero;stroke:none"
             d="m 0,0 c 0,-3.26 -72.22,-5.901 -161.306,-5.901 -89.087,0 -161.306,2.641 -161.306,5.901 0,3.259 72.219,5.9 161.306,5.9 C -72.22,5.9 0,3.259 0,0" /></g><g
           transform="translate(296.4395,87.4932)"
           id="g40"><path
             id="path42"
             style="fill:#b3dac9;fill-opacity:1;fill-rule:nonzero;stroke:none"
             d="m 0,0 c 6.133,12.627 13.645,24.989 24.666,33.683 4.222,3.33 9.03,6.118 14.327,7.045 5.297,0.925 11.143,-0.235 15.049,-3.929 0.733,-0.694 1.547,-1.528 2.552,-1.437 0.656,0.06 1.198,0.513 1.704,0.935 6.942,5.804 15.316,9.634 23.812,12.748 17.633,6.465 37.302,10.084 55.104,4.101 7.7,-2.588 15.408,-7.716 17.357,-15.601 1.933,-7.824 -2.405,-15.882 -7.842,-21.829 C 137.745,5.89 125.549,-0.587 112.811,-4.457 100.071,-8.327 86.725,-9.741 73.444,-10.677 50.365,-12.302 21.687,-8.061 0,0" /></g><g
           transform="translate(302.5352,89.6826)"
           id="g44"><path
             id="path46"
             style="fill:#ffffff;fill-opacity:1;fill-rule:nonzero;stroke:none"
             d="m 0,0 c 9.166,1.164 18.332,2.33 27.478,3.644 9.139,1.313 18.26,2.773 27.326,4.528 9.03,1.747 18.008,3.78 26.87,6.245 8.788,2.445 17.398,5.437 26.036,8.357 8.578,2.901 17.218,5.692 26.085,7.577 1.094,0.232 2.189,0.449 3.289,0.651 0.723,0.134 0.653,1.287 -0.078,1.152 -8.898,-1.64 -17.568,-4.256 -26.143,-7.104 C 102.23,22.183 93.667,19.105 84.935,16.548 76.087,13.957 67.111,11.815 58.077,9.986 49.009,8.15 39.877,6.634 30.726,5.28 21.584,3.929 12.419,2.742 3.253,1.575 2.143,1.434 1.033,1.293 -0.077,1.151 -0.812,1.059 -0.738,-0.094 0,0" /></g><g
           transform="translate(322.625,92.5313)"
           id="g48"><path
             id="path50"
             style="fill:#ffffff;fill-opacity:1;fill-rule:nonzero;stroke:none"
             d="m 0,0 c 5.546,2.792 11.093,5.585 16.639,8.377 5.606,2.823 11.213,5.646 16.82,8.47 3.102,1.561 6.204,3.124 9.306,4.685 0.278,0.141 0.321,0.562 0.164,0.8 -0.19,0.286 -0.521,0.305 -0.801,0.164 C 36.582,19.703 31.036,16.911 25.49,14.118 19.884,11.295 14.276,8.473 8.67,5.649 5.568,4.087 2.466,2.525 -0.637,0.963 -0.915,0.823 -0.958,0.401 -0.8,0.163 -0.611,-0.122 -0.279,-0.142 0,0" /></g><g
           transform="translate(360.5186,98.5205)"
           id="g52"><path
             id="path54"
             style="fill:#ffffff;fill-opacity:1;fill-rule:nonzero;stroke:none"
             d="m 0,0 c 6.138,-1.363 12.242,-2.871 18.34,-4.399 6.289,-1.577 12.57,-3.181 18.869,-4.712 3.363,-0.818 6.73,-1.613 10.109,-2.364 0.726,-0.161 0.944,0.973 0.217,1.135 -6.138,1.363 -12.242,2.871 -18.34,4.4 -6.289,1.576 -12.57,3.18 -18.869,4.711 C 6.963,-0.411 3.596,0.384 0.217,1.135 -0.509,1.296 -0.727,0.162 0,0" /></g><g
           transform="translate(395.3262,107.5322)"
           id="g56"><path
             id="path58"
             style="fill:#ffffff;fill-opacity:1;fill-rule:nonzero;stroke:none"
             d="m 0,0 c 5.604,5.365 11.787,10.228 18.433,14.24 1.799,1.086 3.64,2.11 5.535,3.022 0.28,0.135 0.471,0.41 0.363,0.731 -0.089,0.267 -0.448,0.499 -0.73,0.363 C 16.479,14.927 9.957,10.236 3.959,5.118 2.31,3.711 0.696,2.26 -0.87,0.76 -1.096,0.544 -1.035,0.138 -0.814,-0.055 -0.562,-0.275 -0.227,-0.217 0,0" /></g><g
           transform="translate(296.0322,120.2822)"
           id="g60"><path
             id="path62"
             style="fill:#509d7f;fill-opacity:1;fill-rule:nonzero;stroke:none"
             d="m 0,0 c -4.087,11.546 -4.731,24.287 -1.83,36.187 1.393,5.712 3.636,11.315 7.334,15.886 3.698,4.573 8.974,8.044 14.809,8.771 0.851,0.106 1.813,0.209 2.336,0.886 0.383,0.496 0.419,1.166 0.455,1.791 0.937,16.328 12.033,30.2 23.745,41.616 5.379,5.242 11.066,10.282 17.667,13.866 6.599,3.583 14.235,5.64 21.669,4.568 4.361,-0.628 8.525,-2.307 12.33,-4.53 3.566,-2.084 6.924,-4.738 9.019,-8.299 2.619,-4.45 3.01,-9.97 1.888,-15.01 -1.121,-5.04 -3.643,-9.666 -6.546,-13.935 C 98.75,75.728 93.791,70.225 88.182,65.49 87.542,64.951 86.844,64.328 86.776,63.494 86.684,62.329 87.824,61.502 88.743,60.78 93.747,56.855 95.053,49.494 93.257,43.394 91.461,37.293 87.126,32.269 82.448,27.961 72.8,19.072 61.259,12.397 49.117,7.431 43.716,5.221 38.149,3.329 32.385,2.423 28.039,1.739 23.627,1.622 19.238,1.306 13.627,0.901 5.578,0.732 0,0" /></g><g
           transform="translate(299.7139,121.9609)"
           id="g64"><path
             id="path66"
             style="fill:#ffffff;fill-opacity:1;fill-rule:nonzero;stroke:none"
             d="m 0,0 c 5.996,6.62 11.91,13.313 17.738,20.082 5.854,6.798 11.621,13.669 17.301,20.612 5.655,6.914 11.224,13.899 16.703,20.952 5.48,7.053 10.871,14.176 16.171,21.365 5.301,7.189 10.51,14.445 15.627,21.765 0.646,0.923 1.289,1.847 1.932,2.773 0.42,0.603 -0.438,1.379 -0.861,0.77 C 79.517,100.982 74.331,93.71 69.054,86.504 63.753,79.267 58.361,72.097 52.88,64.995 47.422,57.925 41.875,50.924 36.24,43.993 30.606,37.063 24.886,30.203 19.078,23.416 13.271,16.63 7.38,9.916 1.403,3.278 0.65,2.44 -0.104,1.605 -0.86,0.771 -1.36,0.219 -0.499,-0.551 0,0" /></g><g
           transform="translate(316.0566,140.5391)"
           id="g68"><path
             id="path70"
             style="fill:#ffffff;fill-opacity:1;fill-rule:nonzero;stroke:none"
             d="m 0,0 c 1.758,6.075 3.705,12.094 5.775,18.069 2.056,5.934 4.234,11.826 6.464,17.696 1.266,3.334 2.55,6.661 3.839,9.985 0.112,0.291 0.044,0.626 -0.254,0.776 -0.256,0.13 -0.663,0.04 -0.776,-0.253 C 12.753,40.353 10.475,34.424 8.28,28.465 6.084,22.498 3.971,16.5 2.01,10.452 0.91,7.062 -0.141,3.655 -1.131,0.231 -1.338,-0.482 -0.205,-0.71 0,0" /></g><g
           transform="translate(336.9072,165.4365)"
           id="g72"><path
             id="path74"
             style="fill:#ffffff;fill-opacity:1;fill-rule:nonzero;stroke:none"
             d="m 0,0 c 5.599,2.646 11.106,5.487 16.49,8.547 5.48,3.113 10.836,6.452 15.988,10.084 2.801,1.974 5.541,4.039 8.194,6.209 0.241,0.197 0.348,0.521 0.163,0.8 -0.158,0.24 -0.558,0.362 -0.8,0.164 C 35.27,21.905 30.23,18.349 25.042,15.039 19.78,11.682 14.359,8.575 8.832,5.677 5.796,4.085 2.728,2.559 -0.371,1.094 -0.653,0.961 -0.841,0.681 -0.732,0.361 -0.641,0.092 -0.283,-0.134 0,0" /></g><g
           transform="translate(359.1455,193.7178)"
           id="g76"><path
             id="path78"
             style="fill:#ffffff;fill-opacity:1;fill-rule:nonzero;stroke:none"
             d="m 0,0 c 1.028,4.832 2.343,9.6 3.855,14.302 1.522,4.731 3.248,9.395 5.117,14.001 1.042,2.568 2.131,5.118 3.256,7.651 0.301,0.678 -0.728,1.204 -1.03,0.524 C 9.181,31.937 7.284,27.343 5.554,22.686 3.805,17.976 2.218,13.202 0.87,8.362 0.122,5.672 -0.55,2.962 -1.131,0.231 -1.286,-0.496 -0.154,-0.728 0,0" /></g><g
           transform="translate(360.1543,141.1191)"
           id="g80"><path
             id="path82"
             style="fill:#1e976f;fill-opacity:1;fill-rule:nonzero;stroke:none"
             d="m 0,0 c 3.118,2.59 6.346,5.048 9.673,7.363 3.339,2.325 6.778,4.507 10.302,6.541 3.488,2.013 7.06,3.884 10.707,5.594 3.683,1.729 7.44,3.301 11.257,4.711 3.802,1.404 7.664,2.647 11.572,3.724 0.484,0.133 0.97,0.264 1.456,0.392 0.35,0.093 0.538,0.514 0.43,0.844 -0.117,0.36 -0.493,0.523 -0.843,0.431 C 50.604,28.557 46.7,27.345 42.854,25.967 39.038,24.6 35.28,23.07 31.594,21.387 27.854,19.679 24.186,17.818 20.604,15.802 17.057,13.807 13.595,11.661 10.23,9.373 6.866,7.085 3.599,4.653 0.441,2.086 0.052,1.769 -0.336,1.449 -0.723,1.128 -1.001,0.897 -1.138,0.533 -0.926,0.202 -0.749,-0.073 -0.279,-0.232 0,0" /></g><g
           transform="translate(405.9092,167.5654)"
           id="g84"><path
             id="path86"
             style="fill:#1e976f;fill-opacity:1;fill-rule:nonzero;stroke:none"
             d="m 0,0 c 9.049,5.679 19.104,9.748 29.555,11.961 4.17,0.883 8.564,1.463 12.648,0.239 1.903,-0.57 4.019,-2.337 3.209,-4.152 C 45.142,7.442 44.594,7.015 44.049,6.637 39.19,3.265 33.212,1.991 27.378,1.024 18.025,-0.526 9.474,0.352 0,0" /></g><g
           transform="translate(390.5908,161.5977)"
           id="g88"><path
             id="path90"
             style="fill:#1e976f;fill-opacity:1;fill-rule:nonzero;stroke:none"
             d="m 0,0 c 4.09,9.868 9.932,19.008 17.171,26.863 2.889,3.135 6.137,6.153 10.174,7.519 1.883,0.638 4.63,0.421 5.021,-1.528 0.13,-0.649 -0.069,-1.316 -0.294,-1.939 C 30.062,25.353 25.926,20.853 21.729,16.687 15.001,10.007 7.521,5.771 0,0" /></g><g
           transform="translate(394.627,163.6709)"
           id="g92"><path
             id="path94"
             style="fill:#1e976f;fill-opacity:1;fill-rule:nonzero;stroke:none"
             d="m 0,0 c 10.516,1.88 21.363,1.892 31.883,0.033 4.197,-0.742 8.49,-1.848 11.819,-4.511 1.552,-1.242 2.852,-3.671 1.422,-5.052 -0.477,-0.46 -1.145,-0.652 -1.792,-0.799 -5.768,-1.309 -11.788,-0.253 -17.561,1.034 C 16.519,-7.232 8.916,-3.219 0,0" /></g><g
           transform="translate(373.959,152.2744)"
           id="g96"><path
             id="path98"
             style="fill:#1e976f;fill-opacity:1;fill-rule:nonzero;stroke:none"
             d="m 0,0 c 1.845,10.521 5.558,20.714 10.915,29.956 2.137,3.688 4.65,7.34 8.294,9.553 1.698,1.031 4.427,1.418 5.232,-0.4 0.269,-0.605 0.22,-1.299 0.136,-1.957 C 23.826,31.286 20.768,25.994 17.578,21.015 12.465,13.031 6.085,7.269 0,0" /></g><g
           transform="translate(363.9834,145)"
           id="g100"><path
             id="path102"
             style="fill:#1e976f;fill-opacity:1;fill-rule:nonzero;stroke:none"
             d="m 0,0 c -0.365,8.976 0.864,18.014 3.614,26.566 1.097,3.413 2.509,6.863 5.108,9.332 1.212,1.152 3.384,1.956 4.371,0.608 0.329,-0.449 0.413,-1.029 0.461,-1.584 C 13.985,29.968 12.419,25.072 10.688,20.41 7.913,12.937 3.7,7.061 0,0" /></g><g
           transform="translate(376.7129,153.7334)"
           id="g104"><path
             id="path106"
             style="fill:#1e976f;fill-opacity:1;fill-rule:nonzero;stroke:none"
             d="m 0,0 c 10.516,1.88 21.363,1.891 31.883,0.032 4.197,-0.741 8.49,-1.847 11.819,-4.511 1.552,-1.241 2.852,-3.67 1.422,-5.051 -0.477,-0.46 -1.145,-0.653 -1.792,-0.799 -5.767,-1.309 -11.788,-0.253 -17.561,1.034 C 16.519,-7.233 8.916,-3.22 0,0" /></g><g
           transform="translate(367.6064,147.6279)"
           id="g108"><path
             id="path110"
             style="fill:#1e976f;fill-opacity:1;fill-rule:nonzero;stroke:none"
             d="m 0,0 c 8.11,0.109 16.237,-1.222 23.889,-3.913 3.052,-1.074 6.132,-2.433 8.297,-4.839 1.009,-1.121 1.683,-3.102 0.441,-3.96 -0.414,-0.286 -0.939,-0.347 -1.44,-0.377 -4.483,-0.268 -8.863,1.266 -13.028,2.943 C 11.481,-7.459 6.282,-3.513 0,0" /></g><g
           transform="translate(167.3179,75.042)"
           id="g112"><path
             id="path114"
             style="fill:#b3dac9;fill-opacity:1;fill-rule:nonzero;stroke:none"
             d="m 0,0 c -1.311,12.056 -3.819,24.298 -10.25,34.578 -2.464,3.938 -5.563,7.606 -9.601,9.901 -4.038,2.296 -9.13,3.055 -13.384,1.188 -0.798,-0.351 -1.703,-0.792 -2.493,-0.425 -0.516,0.24 -0.826,0.766 -1.113,1.257 -3.956,6.742 -9.651,12.295 -15.654,17.303 -12.458,10.392 -27.401,19.064 -43.621,19.383 -7.016,0.137 -14.778,-1.788 -18.659,-7.633 -3.851,-5.8 -2.67,-13.616 0.02,-20.037 4.444,-10.608 12.477,-19.427 21.71,-26.285 9.233,-6.857 19.676,-11.895 30.205,-16.523 C -44.543,4.664 -19.985,-0.239 0,0" /></g><g
           transform="translate(162.9976,78.5986)"
           id="g116"><path
             id="path118"
             style="fill:#ffffff;fill-opacity:1;fill-rule:nonzero;stroke:none"
             d="m 0,0 c -7.115,3.616 -14.23,7.233 -21.285,10.966 -7.051,3.729 -14.043,7.573 -20.906,11.64 -6.835,4.051 -13.544,8.32 -20.034,12.906 -6.435,4.548 -12.567,9.488 -18.741,14.379 -6.132,4.857 -12.345,9.643 -19.008,13.758 -0.821,0.508 -1.65,1.003 -2.484,1.489 -0.55,0.318 -0.157,1.236 0.398,0.914 6.759,-3.925 13.048,-8.578 19.193,-13.392 6.185,-4.846 12.254,-9.843 18.611,-14.466 6.441,-4.684 13.117,-9.039 19.932,-13.158 6.841,-4.135 13.825,-8.027 20.874,-11.794 C -16.409,9.48 -9.301,5.847 -2.186,2.229 -1.325,1.79 -0.463,1.352 0.399,0.914 0.969,0.624 0.574,-0.292 0,0" /></g><g
           transform="translate(147.4888,86.7656)"
           id="g120"><path
             id="path122"
             style="fill:#ffffff;fill-opacity:1;fill-rule:nonzero;stroke:none"
             d="m 0,0 c -3.697,3.887 -7.395,7.772 -11.092,11.659 -3.738,3.929 -7.475,7.858 -11.213,11.786 -2.068,2.174 -4.136,4.348 -6.204,6.522 -0.185,0.195 -0.097,0.551 0.1,0.698 0.237,0.178 0.512,0.097 0.699,-0.1 3.697,-3.886 7.394,-7.772 11.091,-11.659 C -12.881,14.978 -9.144,11.049 -5.406,7.12 -3.338,4.946 -1.27,2.772 0.798,0.599 0.984,0.403 0.896,0.048 0.698,-0.1 0.461,-0.277 0.187,-0.196 0,0" /></g><g
           transform="translate(118.4155,102.6729)"
           id="g124"><path
             id="path126"
             style="fill:#ffffff;fill-opacity:1;fill-rule:nonzero;stroke:none"
             d="m 0,0 c -5.389,0.679 -10.793,1.23 -16.198,1.764 -5.573,0.549 -11.149,1.073 -16.718,1.663 -2.973,0.315 -5.943,0.648 -8.909,1.022 -0.637,0.08 -0.485,1.067 0.153,0.986 5.389,-0.679 10.793,-1.23 16.197,-1.763 5.574,-0.55 11.15,-1.074 16.719,-1.663 C -5.783,1.693 -2.813,1.359 0.153,0.986 0.791,0.906 0.638,-0.08 0,0" /></g><g
           transform="translate(92.7314,120.1396)"
           id="g128"><path
             id="path130"
             style="fill:#ffffff;fill-opacity:1;fill-rule:nonzero;stroke:none"
             d="m 0,0 c -2.995,5.996 -6.608,11.75 -10.844,16.949 -1.147,1.408 -2.347,2.776 -3.622,4.07 -0.189,0.192 -0.264,0.47 -0.083,0.701 0.151,0.19 0.511,0.275 0.701,0.083 C -9.056,16.939 -5.117,11.225 -1.729,5.315 -0.798,3.69 0.091,2.041 0.928,0.364 1.049,0.123 0.881,-0.189 0.646,-0.282 0.377,-0.388 0.121,-0.242 0,0" /></g><g
           transform="translate(166.9551,142.9736)"
           id="g132"><path
             id="path134"
             style="fill:#1e976f;fill-opacity:1;fill-rule:nonzero;stroke:none"
             d="m 0,0 c -3.396,2.212 -6.699,4.567 -9.896,7.06 -3.209,2.502 -6.311,5.14 -9.297,7.905 -2.954,2.736 -5.799,5.595 -8.512,8.571 -2.741,3.007 -5.355,6.131 -7.832,9.36 -2.466,3.215 -4.797,6.536 -6.982,9.95 -0.27,0.424 -0.539,0.848 -0.805,1.275 -0.192,0.307 -0.65,0.361 -0.934,0.161 -0.31,-0.219 -0.354,-0.626 -0.161,-0.933 2.165,-3.463 4.479,-6.834 6.933,-10.1 2.435,-3.24 5.007,-6.377 7.707,-9.4 2.738,-3.067 5.601,-6.021 8.587,-8.846 2.956,-2.797 6.03,-5.469 9.212,-8.005 3.181,-2.537 6.47,-4.937 9.857,-7.193 0.418,-0.279 0.838,-0.555 1.26,-0.829 0.303,-0.198 0.691,-0.22 0.944,0.08 C 0.292,-0.694 0.305,-0.198 0,0" /></g><g
           transform="translate(128.1519,178.8506)"
           id="g136"><path
             id="path138"
             style="fill:#1e976f;fill-opacity:1;fill-rule:nonzero;stroke:none"
             d="m 0,0 c -8.102,6.963 -14.965,15.363 -20.172,24.69 -2.078,3.723 -3.932,7.749 -3.973,12.011 -0.018,1.988 1.044,4.53 3.018,4.295 0.657,-0.079 1.229,-0.475 1.751,-0.884 4.658,-3.643 7.645,-8.976 10.295,-14.263 C -4.833,17.374 -3.139,8.945 0,0" /></g><g
           transform="translate(138.3867,165.9854)"
           id="g140"><path
             id="path142"
             style="fill:#1e976f;fill-opacity:1;fill-rule:nonzero;stroke:none"
             d="m 0,0 c -10.637,0.985 -21.096,3.861 -30.742,8.451 -3.849,1.832 -7.693,4.041 -10.194,7.493 -1.166,1.61 -1.772,4.298 -0.026,5.248 0.582,0.317 1.278,0.324 1.94,0.293 5.907,-0.272 11.43,-2.892 16.652,-5.668 C -14,11.367 -7.739,5.476 0,0" /></g><g
           transform="translate(135.2109,169.2266)"
           id="g144"><path
             id="path146"
             style="fill:#1e976f;fill-opacity:1;fill-rule:nonzero;stroke:none"
             d="m 0,0 c -4.908,9.488 -8.129,19.847 -9.467,30.445 -0.534,4.229 -0.748,8.657 0.81,12.625 0.726,1.85 2.663,3.811 4.405,2.853 0.581,-0.319 0.962,-0.902 1.294,-1.475 C -0.002,39.327 0.772,33.263 1.251,27.369 2.02,17.92 0.436,9.47 0,0" /></g><g
           transform="translate(152.2148,152.8584)"
           id="g148"><path
             id="path150"
             style="fill:#1e976f;fill-opacity:1;fill-rule:nonzero;stroke:none"
             d="m 0,0 c -10.597,-1.353 -21.431,-0.822 -31.845,1.56 -4.155,0.95 -8.387,2.269 -11.579,5.094 -1.489,1.318 -2.665,3.81 -1.168,5.117 0.499,0.436 1.177,0.594 1.829,0.708 5.825,1.02 11.786,-0.335 17.487,-1.909 C -16.138,8.049 -8.745,3.66 0,0" /></g><g
           transform="translate(162.1157,145.4824)"
           id="g152"><path
             id="path154"
             style="fill:#1e976f;fill-opacity:1;fill-rule:nonzero;stroke:none"
             d="m 0,0 c -8.466,-3.006 -17.463,-4.506 -26.446,-4.41 -3.584,0.037 -7.298,0.365 -10.426,2.116 -1.458,0.816 -2.87,2.654 -1.874,3.996 0.332,0.447 0.861,0.698 1.377,0.909 4.604,1.879 9.744,1.83 14.71,1.557 C -14.699,3.729 -7.84,1.445 0,0" /></g><g
           transform="translate(150.0054,155.0566)"
           id="g156"><path
             id="path158"
             style="fill:#1e976f;fill-opacity:1;fill-rule:nonzero;stroke:none"
             d="m 0,0 c -4.908,9.488 -8.129,19.847 -9.467,30.445 -0.534,4.229 -0.748,8.657 0.81,12.624 0.726,1.851 2.663,3.811 4.405,2.854 0.581,-0.319 0.962,-0.902 1.294,-1.475 C -0.002,39.326 0.772,33.263 1.251,27.369 2.02,17.92 0.436,9.47 0,0" /></g><g
           transform="translate(158.5327,148.165)"
           id="g160"><path
             id="path162"
             style="fill:#1e976f;fill-opacity:1;fill-rule:nonzero;stroke:none"
             d="m 0,0 c -2.505,7.715 -3.639,15.872 -3.333,23.977 0.123,3.234 0.51,6.578 2.166,9.357 0.773,1.297 2.466,2.526 3.653,1.594 C 2.881,34.617 3.095,34.134 3.272,33.663 4.855,29.462 4.686,24.823 4.317,20.349 3.727,13.176 1.497,7.041 0,0" /></g><g
           transform="translate(216.0928,106.9355)"
           id="g164"><path
             id="path166"
             style="fill:#e0ab6c;fill-opacity:1;fill-rule:nonzero;stroke:none"
             d="M 0,0 C 0,19.601 12.628,29.675 30.307,29.675 47.986,29.675 60.613,19.601 60.613,0 60.613,-19.216 47.986,-30.749 30.307,-30.749 12.628,-30.749 0,-19.216 0,0 m 55.563,160.649 c 0,18.832 -13.576,30.747 -34.096,30.747 -16.848,0 -30.405,-7.483 -40.301,-20.222 -3.366,-4.332 -9.481,-5.356 -13.946,-2.167 l -22.162,15.832 c -4.375,3.125 -5.589,9.171 -2.632,13.662 17.585,26.707 45.642,43.242 84.408,43.242 47.354,0 80.187,-25.75 80.187,-71.1 0,-57.121 -45.762,-67.151 -52.271,-100.941 -0.916,-4.758 -5.059,-8.209 -9.904,-8.209 H 17.111 c -6.103,0 -10.869,5.388 -10.007,11.43 6.323,44.285 48.459,56.799 48.459,87.726" /></g><g
           transform="translate(222.4868,107.1094)"
           id="g168"><path
             id="path170"
             style="fill:#f3d1a4;fill-opacity:1;fill-rule:nonzero;stroke:none"
             d="M 0,0 C 0,19.601 12.628,29.675 30.306,29.675 47.986,29.675 60.613,19.601 60.613,0 60.613,-19.216 47.986,-30.749 30.306,-30.749 12.628,-30.749 0,-19.216 0,0 m 55.562,160.649 c 0,18.832 -13.575,30.747 -34.095,30.747 -16.849,0 -30.405,-7.483 -40.301,-20.222 -3.366,-4.333 -9.481,-5.356 -13.946,-2.167 l -22.162,15.832 c -4.375,3.125 -5.589,9.171 -2.632,13.662 17.585,26.707 45.642,43.242 84.407,43.242 47.355,0 80.187,-25.75 80.187,-71.101 0,-57.12 -45.762,-67.15 -52.27,-100.94 -0.917,-4.758 -5.059,-8.209 -9.905,-8.209 H 17.111 c -6.103,0 -10.87,5.388 -10.007,11.43 6.323,44.285 48.458,56.799 48.458,87.726" /></g><g
           transform="translate(372.8525,305.3984)"
           id="g172"><path
             id="path174"
             style="fill:#b3dac9;fill-opacity:1;fill-rule:nonzero;stroke:none"
             d="m 0,0 c 0.929,3.77 3.834,5.109 7.234,4.271 3.4,-0.837 5.352,-3.372 4.423,-7.142 C 10.747,-6.566 7.772,-8.186 4.372,-7.349 0.973,-6.512 -0.909,-3.695 0,0 m 18.295,28.264 c 0.892,3.622 -1.154,6.556 -5.101,7.528 -3.241,0.798 -6.202,0 -8.709,-1.98 C 3.633,33.138 2.408,33.23 1.701,34.055 l -3.513,4.094 c -0.693,0.809 -0.64,2.029 0.141,2.753 C 2.977,45.205 9.155,47.056 16.61,45.22 25.718,42.977 30.812,36.47 28.664,27.749 25.959,16.764 16.683,17.002 13.831,10.812 13.43,9.94 12.469,9.473 11.537,9.702 l -5.333,1.314 c -1.174,0.289 -1.836,1.551 -1.384,2.672 3.314,8.217 12.01,8.628 13.475,14.576" /></g><g
           transform="translate(125.1675,251.3691)"
           id="g176"><path
             id="path178"
             style="fill:#b3dac9;fill-opacity:1;fill-rule:nonzero;stroke:none"
             d="M 0,0 C -1.878,3.397 -0.654,6.354 2.41,8.048 5.474,9.742 8.628,9.206 10.507,5.809 12.348,2.478 11.265,-0.731 8.2,-2.426 5.136,-4.12 1.842,-3.331 0,0 m -5.763,33.171 c -1.805,3.264 -5.3,4.028 -8.857,2.062 -2.92,-1.614 -4.553,-4.211 -5.047,-7.367 -0.169,-1.074 -1.13,-1.837 -2.21,-1.712 l -5.359,0.62 c -1.057,0.123 -1.847,1.055 -1.765,2.117 0.489,6.314 3.768,11.869 10.487,15.583 8.208,4.538 16.367,3.221 20.713,-4.64 C 7.672,29.933 0.701,23.809 2.811,17.329 3.108,16.416 2.721,15.421 1.881,14.957 l -4.807,-2.658 c -1.058,-0.585 -2.401,-0.108 -2.83,1.022 -3.148,8.282 2.956,14.489 -0.007,19.85" /></g><g
           transform="translate(245.9028,376.5596)"
           id="g180"><path
             id="path182"
             style="fill:#b3dac9;fill-opacity:1;fill-rule:nonzero;stroke:none"
             d="M 0,0 C 0.055,3.143 2.107,4.724 4.942,4.674 7.778,4.625 9.774,2.975 9.72,-0.168 9.667,-3.25 7.61,-5.064 4.774,-5.015 1.939,-4.966 -0.053,-3.082 0,0 m 9.357,25.607 c 0.052,3.019 -2.092,4.968 -5.382,5.025 -2.702,0.047 -4.896,-1.115 -6.519,-3.131 -0.552,-0.685 -1.535,-0.832 -2.242,-0.308 l -3.51,2.6 c -0.693,0.514 -0.871,1.486 -0.384,2.198 2.894,4.234 7.439,6.807 13.656,6.699 7.593,-0.131 12.786,-4.352 12.66,-11.624 C 17.477,17.906 10.111,16.425 8.973,11.025 8.813,10.265 8.139,9.723 7.363,9.736 L 2.915,9.813 c -0.978,0.017 -1.728,0.895 -1.573,1.861 1.137,7.084 7.929,8.973 8.015,13.933" /></g><g
           transform="translate(328.1328,82.1748)"
           id="g184"><path
             id="path186"
             style="fill:#ff9670;fill-opacity:1;fill-rule:nonzero;stroke:none"
             d="m 0,0 c 0,0 -2.363,-7.091 -1.091,-16.09 0,0 -7.612,-4.022 -15.072,1.091 0,0 6.198,4.716 4.255,17.362" /></g><g
           transform="translate(294.6201,58.458)"
           id="g188"><path
             id="path190"
             style="fill:#602b29;fill-opacity:1;fill-rule:nonzero;stroke:none"
             d="m 0,0 c 0.223,0.465 0.567,0.867 1.032,1.131 2.53,1.438 8.692,4.849 18.006,9.429 0,0 5.218,-1.75 13.141,-0.753 0,0 0.841,-5.194 0.746,-9.494 C 28.073,0.1 9.354,-0.653 0,0" /></g><g
           transform="translate(327.5449,58.7715)"
           id="g192"><path
             id="path194"
             style="fill:#400e09;fill-opacity:1;fill-rule:nonzero;stroke:none"
             d="m 0,0 c -0.023,-1.072 -0.066,-2.097 -0.14,-2.977 h -33.055 v 1.556 c 0,0.394 0.106,0.766 0.27,1.108 C -23.571,-0.967 -4.852,-0.214 0,0" /></g><g
           transform="translate(305.5498,63.6074)"
           id="g196"><path
             id="path198"
             style="fill:#400e09;fill-opacity:1;fill-rule:nonzero;stroke:none"
             d="m 0,0 c 0,-0.323 -0.262,-0.586 -0.585,-0.586 -0.323,0 -0.585,0.263 -0.585,0.586 0,0.323 0.262,0.585 0.585,0.585 C -0.262,0.585 0,0.323 0,0" /></g><g
           transform="translate(309.9326,65.4844)"
           id="g200"><path
             id="path202"
             style="fill:#400e09;fill-opacity:1;fill-rule:nonzero;stroke:none"
             d="m 0,0 c 0,-0.323 -0.262,-0.586 -0.585,-0.586 -0.323,0 -0.586,0.263 -0.586,0.586 0,0.323 0.263,0.585 0.586,0.585 C -0.262,0.585 0,0.323 0,0" /></g><g
           transform="translate(314.2559,67.7705)"
           id="g204"><path
             id="path206"
             style="fill:#400e09;fill-opacity:1;fill-rule:nonzero;stroke:none"
             d="m 0,0 c 0,-0.323 -0.263,-0.585 -0.586,-0.585 -0.323,0 -0.585,0.262 -0.585,0.585 0,0.323 0.262,0.585 0.585,0.585 C -0.263,0.585 0,0.323 0,0" /></g><g
           transform="translate(348.917,85.7256)"
           id="g208"><path
             id="path210"
             style="fill:#ff9670;fill-opacity:1;fill-rule:nonzero;stroke:none"
             d="m 0,0 c 0,0 3.785,-14.463 2.05,-20.22 0,0 7.612,-4.022 15.072,1.091 0,0 -7.274,2.453 -4.798,22.998" /></g><g
           transform="translate(383.3896,57.8789)"
           id="g212"><path
             id="path214"
             style="fill:#602b29;fill-opacity:1;fill-rule:nonzero;stroke:none"
             d="m 0,0 c -0.224,0.465 -0.567,0.867 -1.032,1.131 -2.531,1.438 -8.693,4.849 -18.007,9.429 0,0 -5.217,-1.75 -13.14,-0.753 0,0 -0.841,-5.194 -0.747,-9.494 C -28.074,0.1 -9.354,-0.653 0,0" /></g><g
           transform="translate(350.4639,58.1924)"
           id="g216"><path
             id="path218"
             style="fill:#400e09;fill-opacity:1;fill-rule:nonzero;stroke:none"
             d="m 0,0 c 0.023,-1.072 0.066,-2.097 0.141,-2.977 h 33.055 v 1.556 c 0,0.394 -0.106,0.766 -0.27,1.108 C 23.571,-0.967 4.852,-0.214 0,0" /></g><g
           transform="translate(365.6074,66.8135)"
           id="g220"><path
             id="path222"
             style="fill:#400e09;fill-opacity:1;fill-rule:nonzero;stroke:none"
             d="m 0,0 c 0,-0.323 -0.262,-0.586 -0.585,-0.586 -0.323,0 -0.585,0.263 -0.585,0.586 0,0.323 0.262,0.585 0.585,0.585 C -0.262,0.585 0,0.323 0,0" /></g><g
           transform="translate(375.6113,61.9902)"
           id="g224"><path
             id="path226"
             style="fill:#400e09;fill-opacity:1;fill-rule:nonzero;stroke:none"
             d="m 0,0 c 0,-0.323 -0.262,-0.586 -0.585,-0.586 -0.323,0 -0.586,0.263 -0.586,0.586 0,0.323 0.263,0.585 0.586,0.585 C -0.262,0.585 0,0.323 0,0" /></g><g
           transform="translate(370.1094,64.2764)"
           id="g228"><path
             id="path230"
             style="fill:#400e09;fill-opacity:1;fill-rule:nonzero;stroke:none"
             d="m 0,0 c 0,-0.323 -0.262,-0.585 -0.585,-0.585 -0.323,0 -0.586,0.262 -0.586,0.585 0,0.323 0.263,0.585 0.586,0.585 C -0.262,0.585 0,0.323 0,0" /></g><g
           transform="translate(324.0605,315.209)"
           id="g232"><path
             id="path234"
             style="fill:#ff9670;fill-opacity:1;fill-rule:nonzero;stroke:none"
             d="m 0,0 c 2.405,-3.987 2.824,-8.785 1.86,-13.239 -0.964,-4.454 -3.226,-8.606 -5.922,-12.438 4.904,-3.297 10.883,-5.278 16.99,-5.629 2.39,-0.137 4.891,-0.008 7.006,1.008 -2.165,1.905 -3.295,4.562 -4.08,7.195 -1.542,5.17 -1.999,10.6 -1.337,15.919" /></g><g
           transform="translate(330.6885,306.436)"
           id="g236"><path
             id="path238"
             style="fill:#fc7f51;fill-opacity:1;fill-rule:nonzero;stroke:none"
             d="M 0,0 C 1.895,-1.033 5.019,-2.481 7.605,-2.992 7.612,-1.461 7.7,0.068 7.889,1.589 L -6.628,8.773 C -6.06,7.832 -5.611,6.842 -5.257,5.825 -3.965,3.532 -2.394,1.306 0,0" /></g><g
           transform="translate(346.7236,325.3555)"
           id="g240"><path
             id="path242"
             style="fill:#d03711;fill-opacity:1;fill-rule:nonzero;stroke:none"
             d="M 0,0 -0.129,0.645 4.199,1.509 4.327,0.864 Z" /></g><g
           transform="translate(332.1514,337.9487)"
           id="g244"><path
             id="path246"
             style="fill:#ff9670;fill-opacity:1;fill-rule:nonzero;stroke:none"
             d="m 0,0 c 4.035,1.098 8.504,-0.455 11.515,-3.357 3.011,-2.903 5.213,-7.404 5.881,-11.532 0.669,-4.129 0.456,-6.724 0.067,-10.888 -0.103,-1.101 -0.816,-3.464 -1.502,-4.33 -0.688,-0.868 -1.561,-1.685 -2.61,-2.035 -1.663,-0.554 -4.825,-0.687 -7.419,-0.222 -4.116,0.739 -7.721,1.97 -10.65,4.954 -2.928,2.984 -3.055,5.774 -2.49,9.917" /></g><g
           transform="translate(325.7559,317.0234)"
           id="g248"><path
             id="path250"
             style="fill:#ff9670;fill-opacity:1;fill-rule:nonzero;stroke:none"
             d="m 0,0 c -0.598,0.473 -1.247,0.905 -1.98,1.114 -0.733,0.209 -1.565,0.17 -2.203,-0.247 -0.612,-0.401 -0.98,-1.113 -1.064,-1.839 -0.083,-0.727 0.096,-1.465 0.399,-2.131 0.542,-1.186 1.564,-2.22 2.844,-2.469 1.28,-0.25 2.766,0.487 3.086,1.752 0.211,0.837 -0.088,1.713 -0.434,2.505" /></g><g
           transform="translate(324.7646,316.2085)"
           id="g252"><path
             id="path254"
             style="fill:#fc7f51;fill-opacity:1;fill-rule:nonzero;stroke:none"
             d="m 0,0 c -0.212,0.167 -0.442,0.321 -0.703,0.395 -0.26,0.074 -0.555,0.061 -0.781,-0.087 -0.218,-0.142 -0.348,-0.395 -0.378,-0.653 -0.03,-0.258 0.034,-0.52 0.141,-0.756 0.193,-0.421 0.556,-0.788 1.01,-0.877 0.454,-0.088 0.982,0.173 1.095,0.622 0.075,0.297 -0.031,0.608 -0.154,0.889" /></g><g
           transform="translate(320.6445,330.8726)"
           id="g256"><path
             id="path258"
             style="fill:#2d0e0b;fill-opacity:1;fill-rule:nonzero;stroke:none"
             d="m 0,0 c -1.421,-0.205 -2.87,-0.214 -4.295,-0.027 -1.229,0.161 -2.457,0.475 -3.53,1.096 -1.912,1.108 -3.193,3.154 -3.589,5.328 -0.398,2.173 0.037,4.451 0.986,6.446 0.811,1.704 2.051,3.277 3.751,4.097 1.81,0.872 3.935,0.805 5.907,0.427 2.361,-0.452 4.8,-1.451 6.076,-3.488 1.502,-2.398 0.986,-5.514 0.16,-8.22" /></g><g
           transform="translate(349.2031,330.0703)"
           id="g260"><path
             id="path262"
             style="fill:#2d0e0b;fill-opacity:1;fill-rule:nonzero;stroke:none"
             d="m 0,0 c -0.811,4.955 -4.681,9.173 -9.424,10.818 -4.744,1.644 -10.177,0.831 -14.48,-1.755 -1.393,-0.837 -2.673,-1.844 -3.95,-2.848 -1.106,-0.87 -2.222,-1.75 -3.099,-2.849 -1.586,-1.99 -2.28,-4.597 -2.235,-7.141 0.044,-2.545 0.783,-5.037 1.814,-7.363 0.336,-0.76 0.745,-1.551 1.468,-1.961 1.529,-0.868 3.36,0.401 5.11,0.567 0.202,0.019 0.419,0.019 0.588,-0.092 0.259,-0.169 0.307,-0.521 0.334,-0.829 0.411,-4.683 1.711,-9.287 3.811,-13.494 0.423,-0.849 0.901,-1.708 1.653,-2.288 -1.641,5.42 -2.411,10.295 -2.287,15.957 0.016,0.012 0.064,0.814 0.065,0.834 0.073,0.865 0.277,2.337 0.339,2.639 0.558,2.697 1.144,3.586 1.701,6.283 0.509,-1.096 1.019,-2.191 1.528,-3.287 0.155,-0.334 0.348,-0.702 0.7,-0.811 0.345,-0.106 0.705,0.08 1.018,0.26 1.958,1.123 3.916,2.247 5.874,3.371 0.227,0.13 0.467,0.275 0.575,0.513 0.089,0.201 0.069,0.431 0.046,0.649 -0.121,1.161 -0.242,2.322 -0.363,3.483 1.016,-0.962 2.03,-1.924 3.046,-2.885 0.191,-0.182 0.397,-0.371 0.656,-0.42 0.25,-0.047 0.503,0.045 0.741,0.136 l 4.286,1.641 c 0.16,0.061 0.331,0.13 0.426,0.272 C 0.057,-0.429 0.033,-0.204 0,0" /></g><g
           transform="translate(316.877,330.0742)"
           id="g264"><path
             id="path266"
             style="fill:#d03711;fill-opacity:1;fill-rule:nonzero;stroke:none"
             d="m 0,0 c 2.209,3.125 5.588,6.99 10.271,9.963 1.382,0.877 0.621,3.03 -1.002,2.814 C 4.691,12.169 -1.021,9.65 -2.75,1.206 -3.081,-0.41 -0.952,-1.347 0,0" /></g><g
           transform="translate(339.0244,324.8823)"
           id="g268"><path
             id="path270"
             style="fill:#2d0e0b;fill-opacity:1;fill-rule:nonzero;stroke:none"
             d="M 0,0 C -1.985,-0.023 -4.509,-0.247 -5.473,-1.437 -5.952,-2.028 -6.58,-1.94 -6.146,-1.305 -4.8,0.664 -2.843,0.969 0.038,1.226 0.353,1.254 0.627,0.928 0.615,0.567 0.606,0.269 0.319,-0.067 0,0" /></g><g
           transform="translate(332.9248,315.0166)"
           id="g272"><path
             id="path274"
             style="fill:#fc7f51;fill-opacity:1;fill-rule:nonzero;stroke:none"
             d="M 0,0 C 0.448,-1.447 2.533,-2.085 4.659,-1.427 6.784,-0.769 8.144,0.938 7.695,2.384 7.247,3.831 5.161,4.47 3.036,3.811 0.911,3.153 -0.448,1.446 0,0" /></g><g
           transform="translate(346.2354,325.5054)"
           id="g276"><path
             id="path278"
             style="fill:#2d0e0b;fill-opacity:1;fill-rule:nonzero;stroke:none"
             d="M 0,0 C 0.169,-0.547 0.562,-0.912 0.879,-0.814 1.194,-0.716 1.313,-0.193 1.144,0.354 0.974,0.902 0.58,1.266 0.265,1.168 -0.052,1.07 -0.17,0.547 0,0" /></g><g
           transform="translate(337.1221,321.8516)"
           id="g280"><path
             id="path282"
             style="fill:#2d0e0b;fill-opacity:1;fill-rule:nonzero;stroke:none"
             d="m 0,0 c 0.191,-0.618 0.694,-1.011 1.123,-0.878 0.43,0.133 0.622,0.742 0.431,1.36 C 1.362,1.1 0.859,1.493 0.43,1.36 0.001,1.227 -0.191,0.618 0,0" /></g><g
           transform="translate(345.0371,319.2568)"
           id="g284"><path
             id="path286"
             style="fill:#f46e45;fill-opacity:1;fill-rule:nonzero;stroke:none"
             d="M 0,0 C 0.331,0.199 0.592,0.467 0.815,0.771 -0.537,1.464 -1.562,2.769 -1.874,4.26 -1.917,4.462 -1.841,4.673 -1.63,4.742 -1.449,4.8 -1.19,4.7 -1.147,4.497 -0.841,3.033 0.174,1.818 1.562,1.26 1.751,1.184 1.821,0.916 1.73,0.746 1.424,0.174 0.979,-0.303 0.422,-0.637 0.001,-0.891 -0.422,-0.254 0,0" /></g><g
           transform="translate(347.627,316.2036)"
           id="g288"><path
             id="path290"
             style="fill:#e53e3e;fill-opacity:1;fill-rule:nonzero;stroke:none"
             d="m 0,0 c 0,0 -1.629,-1.648 -4.25,-1.429 0,0 4.146,-1.95 4.25,1.429" /></g><g
           transform="translate(337.0312,325.6689)"
           id="g292"><path
             id="path294"
             style="fill:#d03711;fill-opacity:1;fill-rule:nonzero;stroke:none"
             d="m 0,0 c -0.37,0 -0.74,-0.056 -1.101,-0.167 -2.034,-0.631 -3.152,-2.875 -2.491,-5.005 0.32,-1.033 1.006,-1.886 1.932,-2.398 0.919,-0.511 1.968,-0.625 2.952,-0.32 2.033,0.63 3.151,2.874 2.491,5.004 C 3.463,-1.852 2.776,-1 1.851,-0.487 1.269,-0.164 0.635,0 0,0 m 0.19,-8.716 c -0.745,0 -1.488,0.192 -2.169,0.57 -1.075,0.595 -1.872,1.583 -2.243,2.779 -0.765,2.476 0.546,5.09 2.926,5.828 C -0.14,0.82 1.089,0.687 2.171,0.089 3.244,-0.507 4.041,-1.494 4.412,-2.692 5.179,-5.167 3.866,-7.781 1.487,-8.519 1.062,-8.65 0.625,-8.716 0.19,-8.716" /></g><g
           transform="translate(347.0732,329.6382)"
           id="g296"><path
             id="path298"
             style="fill:#d03711;fill-opacity:1;fill-rule:nonzero;stroke:none"
             d="m 0,0 c -0.234,0 -0.466,-0.028 -0.694,-0.087 -1.784,-0.455 -2.787,-2.582 -2.238,-4.743 0.552,-2.158 2.449,-3.548 4.237,-3.091 0.853,0.217 1.557,0.823 1.981,1.706 0.435,0.901 0.525,1.98 0.255,3.036 v 10e-4 C 3.271,-2.122 2.676,-1.218 1.862,-0.635 1.28,-0.216 0.637,0 0,0 m 0.62,-8.666 c -1.856,0 -3.632,1.494 -4.188,3.673 -0.64,2.513 0.577,4.999 2.712,5.543 C 0.188,0.818 1.292,0.586 2.247,-0.101 3.185,-0.774 3.871,-1.81 4.178,-3.016 4.486,-4.222 4.38,-5.459 3.88,-6.5 3.37,-7.561 2.513,-8.292 1.467,-8.559 1.186,-8.631 0.901,-8.666 0.62,-8.666" /></g><g
           transform="translate(328.8613,319.2139)"
           id="g300"><path
             id="path302"
             style="fill:#d03711;fill-opacity:1;fill-rule:nonzero;stroke:none"
             d="M 0,0 -0.129,0.645 4.198,1.508 4.327,0.863 Z" /></g><g
           transform="translate(341.2139,323.146)"
           id="g304"><path
             id="path306"
             style="fill:#d03711;fill-opacity:1;fill-rule:nonzero;stroke:none"
             d="m 0,0 -0.52,0.405 c 0.066,0.083 1.596,2.01 3.337,1.223 L 2.548,1.028 C 1.275,1.601 0.012,0.016 0,0" /></g><g
           transform="translate(310.3887,238.9922)"
           id="g308"><path
             id="path310"
             style="fill:#ef7926;fill-opacity:1;fill-rule:nonzero;stroke:none"
             d="m 0,0 c 0,0 -4.637,-11.698 -6.771,-33.408 -2.134,-21.71 -12.939,-127.336 -12.939,-127.336 0,0 36.156,-4.421 48.131,-1.801 0,0 -4.375,109.579 -2.218,129.417 l 8.43,-128.949 c 0,0 28.972,-1.638 45.619,3.228 0,0 -24.754,133.458 -36.04,158.178" /></g><g
           transform="translate(336.0137,190.1611)"
           id="g312"><path
             id="path314"
             style="fill:#e26a1a;fill-opacity:1;fill-rule:nonzero;stroke:none"
             d="m 0,0 c -0.136,0.794 -0.266,1.588 -0.393,2.384 -1.935,-27.047 -4.035,-54.187 -6.983,-81.099 -1.029,-9.395 -0.108,-22.761 -9.715,-28.018 -4.286,-2.346 -9.259,-3.081 -14.008,-3.875 -3.791,-0.634 -7.582,-1.189 -11.386,-1.633 8.749,-0.972 35.339,-3.649 45.281,-1.473 0,0 -3.081,77.178 -2.796,113.714" /></g><g
           transform="translate(319.1436,231.0283)"
           id="g316"><path
             id="path318"
             style="fill:#e26a1a;fill-opacity:1;fill-rule:nonzero;stroke:none"
             d="M 0,0 C 11.665,1.929 24.823,1.61 35.463,7.278 35.461,7.283 35.459,8.41 35.457,8.414 L -8.755,7.964 c 0,0 -2.48,-6.266 -4.647,-18.123 C -10.488,-5.107 -6.471,-1.069 0,0" /></g><g
           transform="translate(377.207,80.4697)"
           id="g320"><path
             id="path322"
             style="fill:#e26a1a;fill-opacity:1;fill-rule:nonzero;stroke:none"
             d="m 0,0 c -5.932,0.785 -13.011,1.097 -18.511,3.598 -3.959,1.801 -6.279,4.943 -7.559,9.039 -1.931,6.179 -2.691,12.979 -3.715,19.355 -2.421,15.068 -3.149,30.341 -5.395,45.43 -0.966,6.495 -2.275,12.924 -3.565,19.355 l 6.559,-100.332 c 0,0 25.485,-1.44 42.384,2.395 C 6.687,-1.034 3.078,-0.408 0,0" /></g><g
           transform="translate(300.7734,78.3037)"
           id="g324"><path
             id="path326"
             style="fill:#f3d1a4;fill-opacity:1;fill-rule:nonzero;stroke:none"
             d="m 0,0 c -0.134,10.597 -0.022,21.196 0.339,31.787 0.361,10.59 0.972,21.171 1.828,31.733 0.854,10.504 1.95,20.99 3.29,31.444 1.355,10.57 2.963,21.109 4.816,31.603 1.841,10.417 3.926,20.792 6.256,31.111 0.288,1.276 0.58,2.552 0.875,3.827 0.112,0.479 -0.627,0.683 -0.737,0.203 C 14.268,151.353 12.11,140.941 10.202,130.483 8.309,120.104 6.659,109.681 5.252,99.225 3.837,88.711 2.667,78.164 1.745,67.596 0.825,57.04 0.151,46.463 -0.274,35.876 -0.702,25.235 -0.879,14.584 -0.805,3.935 -0.796,2.623 -0.782,1.312 -0.766,0 -0.76,-0.492 0.006,-0.493 0,0" /></g><g
           transform="translate(324.499,241.8711)"
           id="g328"><path
             id="path330"
             style="fill:#f3d1a4;fill-opacity:1;fill-rule:nonzero;stroke:none"
             d="m 0,0 c 0.048,-10.676 -0.221,-21.351 -0.632,-32.018 -0.42,-10.878 -0.986,-21.752 -1.54,-32.624 -0.554,-10.892 -1.098,-21.786 -1.465,-32.685 -0.363,-10.79 -0.439,-21.575 -0.454,-32.369 -0.014,-10.472 -0.035,-20.945 -0.248,-31.415 -0.025,-1.231 -0.054,-2.462 -0.084,-3.693 -0.013,-0.493 0.753,-0.493 0.765,0 0.259,10.321 0.304,20.646 0.326,30.97 0.021,10.823 0.016,21.643 0.333,32.463 0.319,10.88 0.837,21.753 1.385,32.624 0.548,10.882 1.129,21.764 1.584,32.65 0.446,10.705 0.772,21.418 0.8,32.133 C 0.773,-2.643 0.771,-1.321 0.766,0 0.764,0.493 -0.002,0.494 0,0" /></g><g
           transform="translate(334.0752,239.6865)"
           id="g332"><path
             id="path334"
             style="fill:#f3d1a4;fill-opacity:1;fill-rule:nonzero;stroke:none"
             d="m 0,0 c 0.981,-8.904 1.683,-17.838 2.093,-26.787 0.116,-2.533 0.208,-5.067 0.279,-7.603 0.014,-0.491 0.778,-0.493 0.765,0 C 2.889,-25.444 2.355,-16.507 1.534,-7.597 1.301,-5.062 1.044,-2.53 0.766,0 0.712,0.484 -0.054,0.489 0,0" /></g><g
           transform="translate(342.293,238.4795)"
           id="g336"><path
             id="path338"
             style="fill:#f3d1a4;fill-opacity:1;fill-rule:nonzero;stroke:none"
             d="m 0,0 c 2.348,-10.334 4.112,-20.793 5.466,-31.302 1.351,-10.496 2.305,-21.04 3.071,-31.594 0.764,-10.529 1.34,-21.071 1.936,-31.611 0.598,-10.596 1.215,-21.191 2.062,-31.771 0.835,-10.444 1.895,-20.873 3.373,-31.247 0.19,-1.331 0.387,-2.661 0.59,-3.99 0.074,-0.484 0.812,-0.278 0.737,0.204 -1.605,10.495 -2.757,21.053 -3.655,31.63 -0.896,10.575 -1.543,21.167 -2.148,31.761 -0.603,10.542 -1.163,21.087 -1.889,31.62 C 8.814,-55.739 7.922,-45.188 6.652,-34.679 5.398,-24.301 3.781,-13.962 1.604,-3.735 1.325,-2.42 1.035,-1.107 0.737,0.203 0.629,0.684 -0.109,0.48 0,0" /></g><g
           transform="translate(350.9629,239.1562)"
           id="g340"><path
             id="path342"
             style="fill:#f3d1a4;fill-opacity:1;fill-rule:nonzero;stroke:none"
             d="m 0,0 c 2.627,-10.316 5.12,-20.666 7.475,-31.048 2.353,-10.376 4.569,-20.783 6.647,-31.219 2.076,-10.429 4.015,-20.886 5.815,-31.368 1.798,-10.476 3.459,-20.977 4.978,-31.499 1.53,-10.587 2.918,-21.194 4.163,-31.819 0.152,-1.3 0.303,-2.6 0.45,-3.9 0.056,-0.483 0.822,-0.489 0.766,0 -1.202,10.541 -2.541,21.065 -4.02,31.569 -1.481,10.526 -3.103,21.032 -4.863,31.515 -1.77,10.54 -3.681,21.054 -5.73,31.542 C 13.63,-55.733 11.439,-45.269 9.11,-34.834 6.78,-24.394 4.311,-13.984 1.703,-3.61 1.384,-2.339 1.062,-1.067 0.738,0.203 0.616,0.68 -0.122,0.478 0,0" /></g><g
           transform="translate(354.3437,291.8579)"
           id="g344"><path
             id="path346"
             style="fill:#8969e2;fill-opacity:1;fill-rule:nonzero;stroke:none"
             d="m 0,0 c 2.856,-0.902 5.063,-3.251 6.526,-5.866 1.463,-2.614 2.297,-5.524 3.285,-8.353 2.536,-7.262 6.207,-14.416 6.094,-22.108 -0.034,-2.393 -0.501,-4.906 -2.053,-6.727 -1.716,-2.014 -4.421,-2.822 -6.97,-3.533 -1.368,-0.383 -2.778,-0.769 -4.191,-0.621 -2.201,0.229 -4.112,1.76 -5.266,3.649 -1.154,1.888 -1.65,4.103 -1.953,6.295 -0.805,5.811 -0.392,11.713 0.022,17.563 0.41,5.789 0.865,11.747 3.44,16.948" /></g><g
           transform="translate(324.8379,297.1201)"
           id="g348"><path
             id="path350"
             style="fill:#8969e2;fill-opacity:1;fill-rule:nonzero;stroke:none"
             d="m 0,0 c -5.269,-1.47 -12.493,-4.085 -17.105,-7.026 -0.718,-0.458 -0.291,-1.436 -0.687,-2.19 -0.872,-1.653 1.223,-2.762 1.932,-4.492 1.942,-4.733 1.003,-10.111 1.715,-15.178 1.067,-7.592 5.859,-14.579 5.365,-22.229 -0.039,-0.606 -0.106,-1.245 0.166,-1.787 0.478,-0.955 1.73,-1.155 2.795,-1.233 9.519,-0.697 19.056,-1.163 28.598,-1.395 0.553,-0.014 1.151,-0.014 1.601,0.306 0.56,0.399 0.71,1.152 0.83,1.828 0.654,3.702 1.71,7.331 3.142,10.806 1.45,3.52 3.305,6.953 3.804,10.727 0.221,1.673 0.167,3.369 0.114,5.055 -0.173,5.39 -0.345,10.779 -0.518,16.169 -0.029,0.925 -0.071,1.895 -0.542,2.692 -0.483,0.819 -1.344,1.33 -2.179,1.786 -3.868,2.112 -7.963,3.807 -12.192,5.047 -0.848,0.249 -1.735,0.481 -2.606,0.326 C 12.964,-1.013 11.992,-2.002 10.885,-2.663 8.106,-4.321 2.11,-2.455 0,0" /></g><g
           transform="translate(353.5596,289.1367)"
           id="g352"><path
             id="path354"
             style="fill:#ff9670;fill-opacity:1;fill-rule:nonzero;stroke:none"
             d="m 0,0 c 0.154,1.491 -0.897,2.86 -2.121,3.726 -1.225,0.865 -2.659,1.401 -3.867,2.289 -1.209,0.888 -2.214,2.307 -1.978,3.788 0.099,0.622 0.407,1.189 0.71,1.742 0.613,1.118 1.227,2.236 1.839,3.355 0.29,0.528 0.583,1.064 0.725,1.65 0.323,1.334 -0.172,2.716 -0.661,3.999 -0.533,1.403 -1.066,2.805 -1.599,4.208 -0.088,0.232 -0.176,0.492 -0.081,0.722 0.221,0.533 1.026,0.298 1.502,-0.031 1.691,-1.173 3.282,-2.491 4.75,-3.935 C 0.858,19.9 2.367,18.091 3.231,15.959 3.843,14.454 4.113,12.836 4.56,11.274 5.355,8.488 6.705,5.898 7.868,3.244 c 2.113,-4.825 3.618,-9.891 5.117,-14.942 0.834,-2.81 1.672,-5.638 2.005,-8.552 0.244,-2.127 0.215,-4.275 0.175,-6.416 -0.064,-3.365 -0.16,-6.755 -0.91,-10.037 -0.433,-1.895 -1.56,-4.105 -3.504,-4.077 -1.467,0.021 -2.544,1.348 -3.313,2.597 -3.197,5.191 -4.947,11.168 -5.85,17.198 C 0.685,-14.956 0.087,-6.096 0,0" /></g><g
           transform="translate(316.2783,251.1499)"
           id="g356"><path
             id="path358"
             style="fill:#ff9670;fill-opacity:1;fill-rule:nonzero;stroke:none"
             d="m 0,0 c 12.155,1.332 24.447,-2.292 36.604,-0.977 2.507,0.271 5.403,0.632 7.218,-1.118 1.642,-1.58 1.572,-4.404 0.272,-6.276 -1.301,-1.871 -3.535,-2.9 -5.772,-3.337 -2.236,-0.436 -4.536,-0.364 -6.81,-0.506 -2.892,-0.182 -5.751,-0.711 -8.637,-0.969 -7.23,-0.647 -14.611,0.446 -21.345,3.159" /></g><g
           transform="translate(324.4727,297.3506)"
           id="g360"><path
             id="path362"
             style="fill:#7359d1;fill-opacity:1;fill-rule:nonzero;stroke:none"
             d="m 0,0 c 0,0 9.306,-6.475 14.775,-0.783 0,0 4.092,-1.032 8.015,-2.564 0,0 -4.266,-8.371 -12.683,-1.147 0,0 -8.047,-10.602 -16.165,1.952 z" /></g><g
           transform="translate(324.6777,297.833)"
           id="g364"><path
             id="path366"
             style="fill:#a694ea;fill-opacity:1;fill-rule:nonzero;stroke:none"
             d="m 0,0 c 0,0 9.297,-5.116 14.016,-0.206 0,0 2.978,-1.398 6.363,-2.719 0,0 -3.681,-7.221 -10.941,-0.99 0,0 -6.944,-9.146 -13.946,1.684 z" /></g><g
           transform="translate(308.709,290.064)"
           id="g368"><path
             id="path370"
             style="fill:#8969e2;fill-opacity:1;fill-rule:nonzero;stroke:none"
             d="m 0,0 c 0,0 3.819,-1.079 5.9,-16.926 2.08,-15.846 3.806,-16.326 3.806,-16.326 0,0 18.432,-5.128 21.484,-6.578 l 1.105,-13.285 c 0,0 -26.475,-0.969 -35.198,2.043 -8.724,3.013 -3.842,41.189 -3.842,41.189 0,0 1.725,10.802 6.745,9.883" /></g><g
           transform="translate(311.7422,282.0679)"
           id="g372"><path
             id="path374"
             style="fill:#f3d1a4;fill-opacity:1;fill-rule:nonzero;stroke:none"
             d="M 0,0 C 0.492,0 0.493,0.766 0,0.766 -0.492,0.766 -0.493,0 0,0" /></g><g
           transform="translate(304.8262,267.6069)"
           id="g376"><path
             id="path378"
             style="fill:#f3d1a4;fill-opacity:1;fill-rule:nonzero;stroke:none"
             d="M 0,0 C 0.492,0 0.493,0.765 0,0.765 -0.492,0.765 -0.493,0 0,0" /></g><g
           transform="translate(320.5449,262.7866)"
           id="g380"><path
             id="path382"
             style="fill:#f3d1a4;fill-opacity:1;fill-rule:nonzero;stroke:none"
             d="M 0,0 C 0.492,0 0.493,0.765 0,0.765 -0.493,0.765 -0.493,0 0,0" /></g><g
           transform="translate(307.9697,250.6309)"
           id="g384"><path
             id="path386"
             style="fill:#f3d1a4;fill-opacity:1;fill-rule:nonzero;stroke:none"
             d="M 0,0 C 0.492,0 0.493,0.766 0,0.766 -0.492,0.766 -0.493,0 0,0" /></g><g
           transform="translate(313,239.5234)"
           id="g388"><path
             id="path390"
             style="fill:#f3d1a4;fill-opacity:1;fill-rule:nonzero;stroke:none"
             d="M 0,0 C 0.492,0 0.493,0.766 0,0.766 -0.493,0.766 -0.493,0 0,0" /></g><g
           transform="translate(325.7842,250.2119)"
           id="g392"><path
             id="path394"
             style="fill:#f3d1a4;fill-opacity:1;fill-rule:nonzero;stroke:none"
             d="M 0,0 C 0.492,0 0.493,0.765 0,0.765 -0.492,0.765 -0.493,0 0,0" /></g><g
           transform="translate(337.3105,239.9424)"
           id="g396"><path
             id="path398"
             style="fill:#f3d1a4;fill-opacity:1;fill-rule:nonzero;stroke:none"
             d="M 0,0 C 0.493,0 0.493,0.766 0,0.766 -0.492,0.766 -0.493,0 0,0" /></g><g
           transform="translate(337.3105,257.3374)"
           id="g400"><path
             id="path402"
             style="fill:#f3d1a4;fill-opacity:1;fill-rule:nonzero;stroke:none"
             d="M 0,0 C 0.493,0 0.493,0.766 0,0.766 -0.492,0.766 -0.493,0 0,0" /></g><g
           transform="translate(325.9941,271.5889)"
           id="g404"><path
             id="path406"
             style="fill:#f3d1a4;fill-opacity:1;fill-rule:nonzero;stroke:none"
             d="M 0,0 C 0.492,0 0.493,0.766 0,0.766 -0.493,0.766 -0.494,0 0,0" /></g><g
           transform="translate(318.0293,292.3374)"
           id="g408"><path
             id="path410"
             style="fill:#f3d1a4;fill-opacity:1;fill-rule:nonzero;stroke:none"
             d="M 0,0 C 0.493,0 0.493,0.765 0,0.765 -0.492,0.765 -0.493,0 0,0" /></g><g
           transform="translate(326.2031,283.5352)"
           id="g412"><path
             id="path414"
             style="fill:#f3d1a4;fill-opacity:1;fill-rule:nonzero;stroke:none"
             d="M 0,0 C 0.492,0 0.493,0.765 0,0.765 -0.492,0.765 -0.493,0 0,0" /></g><g
           transform="translate(339.4072,273.0562)"
           id="g416"><path
             id="path418"
             style="fill:#f3d1a4;fill-opacity:1;fill-rule:nonzero;stroke:none"
             d="M 0,0 C 0.492,0 0.493,0.765 0,0.765 -0.493,0.765 -0.494,0 0,0" /></g><g
           transform="translate(342.1309,285.2119)"
           id="g420"><path
             id="path422"
             style="fill:#f3d1a4;fill-opacity:1;fill-rule:nonzero;stroke:none"
             d="M 0,0 C 0.493,0 0.493,0.765 0,0.765 -0.492,0.765 -0.493,0 0,0" /></g><g
           transform="translate(351.7715,289.8223)"
           id="g424"><path
             id="path426"
             style="fill:#f3d1a4;fill-opacity:1;fill-rule:nonzero;stroke:none"
             d="M 0,0 C 0.493,0 0.494,0.766 0,0.766 -0.492,0.766 -0.493,0 0,0" /></g><g
           transform="translate(351.7715,276.1997)"
           id="g428"><path
             id="path430"
             style="fill:#f3d1a4;fill-opacity:1;fill-rule:nonzero;stroke:none"
             d="M 0,0 C 0.493,0 0.494,0.766 0,0.766 -0.492,0.766 -0.493,0 0,0" /></g><g
           transform="translate(350.7236,261.3198)"
           id="g432"><path
             id="path434"
             style="fill:#f3d1a4;fill-opacity:1;fill-rule:nonzero;stroke:none"
             d="M 0,0 C 0.493,0 0.494,0.765 0,0.765 -0.492,0.765 -0.493,0 0,0" /></g><g
           transform="translate(351.3525,252.3076)"
           id="g436"><path
             id="path438"
             style="fill:#f3d1a4;fill-opacity:1;fill-rule:nonzero;stroke:none"
             d="M 0,0 C 0.492,0 0.493,0.766 0,0.766 -0.492,0.766 -0.493,0 0,0" /></g><g
           transform="translate(362.251,247.0684)"
           id="g440"><path
             id="path442"
             style="fill:#f3d1a4;fill-opacity:1;fill-rule:nonzero;stroke:none"
             d="M 0,0 C 0.492,0 0.493,0.766 0,0.766 -0.492,0.766 -0.493,0 0,0" /></g><g
           transform="translate(312.1123,276.0845)"
           id="g444"><path
             id="path446"
             style="fill:#7359d1;fill-opacity:1;fill-rule:nonzero;stroke:none"
             d="m 0,0 c 0.248,-3.213 0.495,-6.426 0.743,-9.639 0.199,-2.595 0.189,-5.367 1.028,-7.859 0.349,-1.032 0.867,-2.02 1.641,-2.795 0.887,-0.889 2.048,-1.401 3.259,-1.674 1.382,-0.312 2.821,-0.397 4.229,-0.51 1.597,-0.127 3.195,-0.218 4.794,-0.286 3.61,-0.151 7.222,-0.177 10.833,-0.203 0.494,-0.004 0.494,0.761 0,0.765 -6.035,0.044 -12.121,0.029 -18.126,0.722 -1.311,0.152 -2.675,0.41 -3.784,1.17 -0.924,0.635 -1.565,1.596 -1.969,2.629 -0.891,2.291 -0.895,4.867 -1.082,7.285 C 1.299,-6.93 1.032,-3.465 0.766,0 0.728,0.488 -0.038,0.492 0,0" /></g><g
           transform="translate(309.9639,256.7749)"
           id="g448"><path
             id="path450"
             style="fill:#7359d1;fill-opacity:1;fill-rule:nonzero;stroke:none"
             d="M 0,0 C 1.291,0 2.581,-0.078 3.863,-0.231 4.069,-0.255 4.246,-0.038 4.246,0.152 4.246,0.379 4.069,0.51 3.863,0.534 2.581,0.688 1.291,0.765 0,0.766 -0.492,0.766 -0.493,0 0,0" /></g><g
           transform="translate(348.9512,275.7168)"
           id="g452"><path
             id="path454"
             style="fill:#7359d1;fill-opacity:1;fill-rule:nonzero;stroke:none"
             d="M 0,0 C 1.368,-6.468 2.746,-13.012 2.691,-19.656 2.677,-21.562 2.54,-23.465 2.253,-25.35 2.18,-25.832 2.917,-26.039 2.99,-25.553 4.013,-18.844 3.164,-12.07 1.896,-5.456 1.533,-3.565 1.137,-1.681 0.738,0.203 0.636,0.685 -0.102,0.481 0,0" /></g><g
           transform="translate(169.9648,83.8291)"
           id="g456"><path
             id="path458"
             style="fill:#ff9670;fill-opacity:1;fill-rule:nonzero;stroke:none"
             d="m 0,0 c 0,0 -2.363,-7.09 -1.091,-16.089 0,0 -7.612,-4.022 -15.072,1.091 0,0 6.198,4.715 4.255,17.362" /></g><g
           transform="translate(136.4517,60.1133)"
           id="g460"><path
             id="path462"
             style="fill:#d03711;fill-opacity:1;fill-rule:nonzero;stroke:none"
             d="m 0,0 c 0.223,0.464 0.568,0.867 1.032,1.131 2.531,1.437 8.692,4.848 18.007,9.428 0,0 5.217,-1.75 13.14,-0.753 0,0 0.841,-5.194 0.746,-9.493 C 28.074,0.099 9.354,-0.653 0,0" /></g><g
           transform="translate(169.377,60.4268)"
           id="g464"><path
             id="path466"
             style="fill:#400e09;fill-opacity:1;fill-rule:nonzero;stroke:none"
             d="m 0,0 c -0.023,-1.072 -0.066,-2.097 -0.14,-2.977 h -33.055 v 1.556 c 0,0.394 0.106,0.766 0.27,1.108 C -23.571,-0.967 -4.851,-0.215 0,0" /></g><g
           transform="translate(147.3823,65.2617)"
           id="g468"><path
             id="path470"
             style="fill:#400e09;fill-opacity:1;fill-rule:nonzero;stroke:none"
             d="m 0,0 c 0,-0.323 -0.262,-0.585 -0.585,-0.585 -0.324,0 -0.586,0.262 -0.586,0.585 0,0.323 0.262,0.586 0.586,0.586 C -0.262,0.586 0,0.323 0,0" /></g><g
           transform="translate(151.7646,67.1387)"
           id="g472"><path
             id="path474"
             style="fill:#400e09;fill-opacity:1;fill-rule:nonzero;stroke:none"
             d="m 0,0 c 0,-0.323 -0.262,-0.585 -0.585,-0.585 -0.324,0 -0.585,0.262 -0.585,0.585 0,0.323 0.261,0.585 0.585,0.585 C -0.262,0.585 0,0.323 0,0" /></g><g
           transform="translate(156.0874,69.4258)"
           id="g476"><path
             id="path478"
             style="fill:#400e09;fill-opacity:1;fill-rule:nonzero;stroke:none"
             d="m 0,0 c 0,-0.323 -0.262,-0.586 -0.585,-0.586 -0.323,0 -0.585,0.263 -0.585,0.586 0,0.322 0.262,0.585 0.585,0.585 C -0.262,0.585 0,0.322 0,0" /></g><g
           transform="translate(202.3701,85.5176)"
           id="g480"><path
             id="path482"
             style="fill:#ff9670;fill-opacity:1;fill-rule:nonzero;stroke:none"
             d="m 0,0 c 0,0 0.667,-12.767 -1.068,-18.523 0,0 7.612,-4.023 15.072,1.09 0,0 -5.335,1.842 -2.858,22.387" /></g><g
           transform="translate(233.7246,59.3672)"
           id="g484"><path
             id="path486"
             style="fill:#d03711;fill-opacity:1;fill-rule:nonzero;stroke:none"
             d="m 0,0 c -0.223,0.465 -0.568,0.867 -1.032,1.131 -2.531,1.438 -8.692,4.849 -18.007,9.429 0,0 -5.217,-1.75 -13.14,-0.754 0,0 -0.841,-5.193 -0.746,-9.493 C -28.074,0.1 -9.354,-0.653 0,0" /></g><g
           transform="translate(200.7993,59.6807)"
           id="g488"><path
             id="path490"
             style="fill:#400e09;fill-opacity:1;fill-rule:nonzero;stroke:none"
             d="m 0,0 c 0.023,-1.072 0.066,-2.097 0.14,-2.977 h 33.055 v 1.556 c 0,0.394 -0.106,0.766 -0.27,1.108 C 23.571,-0.967 4.851,-0.214 0,0" /></g><g
           transform="translate(215.9429,68.3018)"
           id="g492"><path
             id="path494"
             style="fill:#400e09;fill-opacity:1;fill-rule:nonzero;stroke:none"
             d="m 0,0 c 0,-0.324 -0.262,-0.586 -0.585,-0.586 -0.324,0 -0.586,0.262 -0.586,0.586 0,0.322 0.262,0.585 0.586,0.585 C -0.262,0.585 0,0.322 0,0" /></g><g
           transform="translate(225.9463,63.4785)"
           id="g496"><path
             id="path498"
             style="fill:#400e09;fill-opacity:1;fill-rule:nonzero;stroke:none"
             d="m 0,0 c 0,-0.323 -0.262,-0.586 -0.585,-0.586 -0.324,0 -0.586,0.263 -0.586,0.586 0,0.323 0.262,0.585 0.586,0.585 C -0.262,0.585 0,0.323 0,0" /></g><g
           transform="translate(220.4443,65.7646)"
           id="g500"><path
             id="path502"
             style="fill:#400e09;fill-opacity:1;fill-rule:nonzero;stroke:none"
             d="m 0,0 c 0,-0.323 -0.262,-0.585 -0.585,-0.585 -0.324,0 -0.585,0.262 -0.585,0.585 0,0.323 0.261,0.585 0.585,0.585 C -0.262,0.585 0,0.323 0,0" /></g><g
           transform="translate(192.9287,339.4268)"
           id="g504"><path
             id="path506"
             style="fill:#ff9670;fill-opacity:1;fill-rule:nonzero;stroke:none"
             d="m 0,0 c 1.568,-6.169 0.283,-12.809 -2.476,-18.546 -0.341,-0.709 -0.712,-1.519 -0.422,-2.252 0.214,-0.544 0.74,-0.891 1.252,-1.175 4.862,-2.696 11.157,-2.596 15.931,0.255 0.153,0.091 0.312,0.195 0.381,0.358 0.136,0.324 -0.147,0.658 -0.383,0.919 -1.313,1.448 -0.625,3.174 -1.195,5.044 -2.443,8.017 -0.935,15.313 1.898,23.008" /></g><g
           transform="translate(193.5459,332.1216)"
           id="g508"><path
             id="path510"
             style="fill:#fc7f51;fill-opacity:1;fill-rule:nonzero;stroke:none"
             d="m 0,0 c 2.442,0.572 5.254,2.106 7.253,3.668 2.214,1.731 3.62,3.478 4.413,5.302 0.281,0.646 0.718,1.171 1.248,1.587 0.425,1.444 0.915,2.894 1.455,4.359 L -0.617,7.305 C -0.136,5.409 0.017,1.945 0,0 0.009,0.002 -0.009,-0.002 0,0" /></g><g
           transform="translate(196.9014,370.1084)"
           id="g512"><path
             id="path514"
             style="fill:#ff9670;fill-opacity:1;fill-rule:nonzero;stroke:none"
             d="m 0,0 c -1.655,0.251 -3.319,-0.389 -4.77,-1.224 -3.75,-2.156 -6.658,-5.734 -8.004,-9.846 -0.537,-1.639 -0.831,-3.347 -1.06,-5.057 -0.54,-4.03 -1.106,-5.583 -0.933,-9.646 0.054,-1.273 1.08,-6.324 1.622,-7.477 0.735,-1.562 1.231,-1.885 2.876,-2.412 1.644,-0.526 3.881,-0.084 5.588,0.176 5.098,0.776 9.813,3.794 12.653,8.098 2.84,4.304 3.759,9.826 2.467,14.818" /></g><g
           transform="translate(220.333,366.7549)"
           id="g516"><path
             id="path518"
             style="fill:#2d0e0b;fill-opacity:1;fill-rule:nonzero;stroke:none"
             d="m 0,0 c -2.305,-0.17 -4.549,-0.709 -6.686,-1.562 0.241,0.895 3.76,5.684 1.343,4.722 C -5.575,1.871 -9.633,-2.906 -7.521,-2.991 -6.567,-1.691 2.35,-1.32 0,0" /></g><g
           transform="translate(198.5015,343.4165)"
           id="g520"><path
             id="path522"
             style="fill:#fc7f51;fill-opacity:1;fill-rule:nonzero;stroke:none"
             d="m 0,0 c -0.346,-1.403 -2.296,-2.129 -4.358,-1.621 -2.06,0.507 -3.452,2.056 -3.106,3.459 0.345,1.403 2.297,2.129 4.358,1.621 C -1.045,2.952 0.345,1.403 0,0" /></g><g
           transform="translate(192.145,353.186)"
           id="g524"><path
             id="path526"
             style="fill:#2d0e0b;fill-opacity:1;fill-rule:nonzero;stroke:none"
             d="M 0,0 C 2.106,0.1 4.795,0.021 5.892,-1.18 6.437,-1.777 7.098,-1.645 6.598,-0.999 5.047,1.004 2.954,1.205 -0.118,1.297 -0.453,1.308 -0.724,0.945 -0.688,0.563 -0.66,0.247 -0.335,-0.091 0,0" /></g><g
           transform="translate(186.8657,355.9937)"
           id="g528"><path
             id="path530"
             style="fill:#2d0e0b;fill-opacity:1;fill-rule:nonzero;stroke:none"
             d="M 0,0 C -1.165,0.712 -2.171,1.284 -3.146,1.624 -3.2,1.445 -3.258,1.269 -3.315,1.093 -3.323,0.932 -3.345,0.776 -3.365,0.619 c 0.901,-0.431 1.811,-1.029 2.593,-1.595 0.22,-0.247 0.656,-0.147 0.844,0.091 C 0.299,-0.598 0.272,-0.167 0,0" /></g><g
           transform="translate(185.2329,352.6582)"
           id="g532"><path
             id="path534"
             style="fill:#2d0e0b;fill-opacity:1;fill-rule:nonzero;stroke:none"
             d="m 0,0 c -0.13,-0.531 -0.485,-0.9 -0.792,-0.825 -0.306,0.076 -0.448,0.567 -0.317,1.098 0.13,0.531 0.485,0.9 0.791,0.825 C -0.012,1.022 0.131,0.531 0,0" /></g><g
           transform="translate(194.1187,349.6909)"
           id="g536"><path
             id="path538"
             style="fill:#2d0e0b;fill-opacity:1;fill-rule:nonzero;stroke:none"
             d="m 0,0 c -0.147,-0.6 -0.604,-1.002 -1.021,-0.899 -0.416,0.102 -0.634,0.671 -0.486,1.27 0.148,0.6 0.605,1.003 1.021,0.9 C -0.07,1.168 0.148,0.599 0,0" /></g><g
           transform="translate(186.7256,346.7739)"
           id="g540"><path
             id="path542"
             style="fill:#f46e45;fill-opacity:1;fill-rule:nonzero;stroke:none"
             d="M 0,0 C -0.326,0.171 -0.59,0.412 -0.82,0.688 0.429,1.425 1.331,2.725 1.545,4.163 1.575,4.358 1.491,4.554 1.286,4.608 1.111,4.654 0.87,4.544 0.84,4.348 0.63,2.937 -0.268,1.722 -1.56,1.112 -1.735,1.029 -1.786,0.77 -1.69,0.613 -1.366,0.086 -0.915,-0.343 -0.366,-0.631 0.049,-0.848 0.416,-0.218 0,0" /></g><g
           transform="translate(184.4302,343.7202)"
           id="g544"><path
             id="path546"
             style="fill:#e53e3e;fill-opacity:1;fill-rule:nonzero;stroke:none"
             d="M 0,0 C 0,0 1.645,-1.479 4.129,-1.122 4.129,-1.122 0.29,-3.213 0,0" /></g><g
           transform="translate(217.9805,355.4917)"
           id="g548"><path
             id="path550"
             style="fill:#2d0e0b;fill-opacity:1;fill-rule:nonzero;stroke:none"
             d="m 0,0 c -0.269,3.81 -0.644,7.149 -3.976,9.015 l -0.492,0.538 c -0.34,2.316 -1.73,4.391 -3.527,5.89 -1.234,1.03 -2.655,1.797 -4.143,2.416 -7.11,2.537 -17.068,-0.016 -22.741,-1.924 0.455,-0.691 0.91,-1.381 1.365,-2.072 -1.936,-0.049 -3.876,0.088 -5.785,0.407 0.873,-3.382 2.126,-6.742 4.327,-9.454 2.621,-3.23 6.395,-4.555 10.357,-5.824 3.961,-1.268 6.445,-2.597 10.566,-3.16 0.462,-0.064 -0.218,-5.847 0.177,-6.094 0.672,-0.422 2.88,3.261 3.059,2.487 1.054,-4.555 -3.408,-7.861 -2.213,-12.382 3.461,1.093 8.444,5.693 10.354,9.001 C -0.763,-7.849 0.269,-3.81 0,0" /></g><g
           transform="translate(203.3062,344.4326)"
           id="g552"><path
             id="path554"
             style="fill:#ff9670;fill-opacity:1;fill-rule:nonzero;stroke:none"
             d="M 0,0 C 0.512,1.505 2.735,4.76 4.06,5.639 4.449,5.897 4.876,6.122 5.34,6.178 5.804,6.234 6.313,6.094 6.606,5.73 6.832,5.451 6.906,5.081 6.943,4.725 7.096,3.251 6.728,1.728 5.917,0.487 5.107,-0.753 3.861,-1.704 2.451,-2.156 1.655,-2.411 0.628,-2.438 0.151,-1.751 -0.192,-1.257 -0.103,-0.593 0,0" /></g><g
           transform="translate(204.7949,346.0381)"
           id="g556"><path
             id="path558"
             style="fill:#fc7f51;fill-opacity:1;fill-rule:nonzero;stroke:none"
             d="M 0,0 C -0.075,-0.315 -0.123,-0.63 -0.058,-0.897 0.006,-1.163 0.195,-1.377 0.504,-1.416 0.8,-1.453 1.176,-1.323 1.5,-1.112 1.823,-0.9 2.098,-0.613 2.315,-0.316 2.703,0.213 2.926,0.825 2.765,1.253 2.604,1.681 1.985,1.847 1.385,1.526 0.988,1.313 0.681,0.95 0.419,0.601" /></g><g
           transform="translate(214.2686,255.6279)"
           id="g560"><path
             id="path562"
             style="fill:#400e09;fill-opacity:1;fill-rule:nonzero;stroke:none"
             d="M 0,0 C 0,0 10.829,-16.728 12.23,-36.26 13.632,-55.793 9.358,-180.676 9.358,-180.676 l -25.468,-0.908 c 0,0 1.925,108.815 -0.496,122.313 l -24.069,-121.419 -25.705,0.701 c 0,0 21.562,165.337 30.083,178.695 z" /></g><g
           id="g564"><g
             id="g566" /><g
             id="g578"><g
               style="opacity:0.5"
               id="g576"
               clip-path="url(#clipPath570)"><g
                 id="g574"
                 transform="translate(192.3638,234.6729)"><path
                   id="path572"
                   style="fill:#f3d1a4;fill-opacity:1;fill-rule:nonzero;stroke:none"
                   d="m 0,0 c -0.535,-3.488 -0.771,-7.018 -0.672,-10.546 0.086,-3.054 0.411,-6.322 2.277,-8.862 0.906,-1.233 2.089,-2.204 3.535,-2.728 0.193,-0.07 0.421,0.079 0.471,0.267 1.837,6.844 1.014,14.015 2.246,20.947 0.086,0.482 -0.651,0.688 -0.738,0.203 -1.231,-6.929 -0.411,-14.109 -2.246,-20.946 0.157,0.089 0.314,0.178 0.471,0.267 -2.596,0.94 -4.108,3.503 -4.726,6.068 -0.363,1.505 -0.471,3.056 -0.519,4.6 -0.051,1.636 -0.033,3.276 0.056,4.912 0.102,1.88 0.297,3.754 0.583,5.614 C 0.812,0.278 0.075,0.485 0,0" /></g></g></g></g><g
           id="g580"><g
             id="g582" /><g
             id="g594"><g
               style="opacity:0.5"
               id="g592"
               clip-path="url(#clipPath586)"><g
                 id="g590"
                 transform="translate(208.5889,235.8213)"><path
                   id="path588"
                   style="fill:#f3d1a4;fill-opacity:1;fill-rule:nonzero;stroke:none"
                   d="m 0,0 c 3.333,-5.199 6.972,-10.692 12.916,-13.128 0.455,-0.186 0.653,0.554 0.203,0.738 C 7.388,-10.042 3.867,-4.616 0.661,0.386 0.396,0.8 -0.267,0.416 0,0" /></g></g></g></g><g
           id="g596"><g
             id="g598" /><g
             id="g610"><g
               style="opacity:0.5"
               id="g608"
               clip-path="url(#clipPath602)"><g
                 id="g606"
                 transform="translate(171.6895,226.126)"><path
                   id="path604"
                   style="fill:#f3d1a4;fill-opacity:1;fill-rule:nonzero;stroke:none"
                   d="m 0,0 c 2.558,1.158 4.605,3.141 6.472,5.193 2.022,2.222 3.866,4.602 5.526,7.107 0.272,0.411 -0.391,0.795 -0.662,0.386 C 9.713,10.235 7.91,7.908 5.931,5.734 4.103,3.726 2.119,1.796 -0.386,0.661 -0.834,0.458 -0.446,-0.202 0,0" /></g></g></g></g><g
           id="g612"><g
             id="g614" /><g
             id="g626"><g
               style="opacity:0.5"
               id="g624"
               clip-path="url(#clipPath618)"><g
                 id="g622"
                 transform="translate(199.2969,191.2656)"><path
                   id="path620"
                   style="fill:#f3d1a4;fill-opacity:1;fill-rule:nonzero;stroke:none"
                   d="m 0,0 c 1.813,-14.669 3.174,-29.394 4.073,-44.147 0.894,-14.679 1.334,-29.386 1.318,-44.092 -0.009,-8.286 -0.164,-16.573 -0.461,-24.854 -0.018,-0.492 0.747,-0.491 0.765,0 0.53,14.772 0.604,29.559 0.216,44.335 C 5.524,-54.057 4.683,-39.367 3.387,-24.719 2.657,-16.465 1.782,-8.224 0.765,0 0.706,0.482 -0.061,0.488 0,0" /></g></g></g></g><g
           id="g628"><g
             id="g630" /><g
             id="g642"><g
               style="opacity:0.5"
               id="g640"
               clip-path="url(#clipPath634)"><g
                 id="g638"
                 transform="translate(166.4268,80.9941)"><path
                   id="path636"
                   style="fill:#f3d1a4;fill-opacity:1;fill-rule:nonzero;stroke:none"
                   d="m 0,0 c 0.836,7.851 2.122,15.646 3.663,23.387 1.544,7.748 3.34,15.442 5.196,23.121 1.774,7.341 3.545,14.684 5.448,21.994 1.865,7.168 3.883,14.301 6.269,21.314 2.388,7.02 5.149,13.92 8.477,20.55 0.419,0.833 0.846,1.662 1.282,2.487 0.23,0.435 -0.43,0.823 -0.661,0.386 C 26.21,106.682 23.317,99.838 20.826,92.855 18.315,85.816 16.208,78.64 14.284,71.421 12.334,64.105 10.56,56.745 8.771,49.39 6.903,41.713 5.073,34.026 3.473,26.289 1.876,18.564 0.511,10.788 -0.431,2.955 -0.549,1.971 -0.66,0.986 -0.765,0 -0.817,-0.488 -0.052,-0.485 0,0" /></g></g></g></g><g
           transform="translate(178.6934,321.4805)"
           id="g644"><path
             id="path646"
             style="fill:#1e976f;fill-opacity:1;fill-rule:nonzero;stroke:none"
             d="m 0,0 c -3.405,-1.209 -5.936,-4.812 -8.096,-8.404 -3.792,-6.306 -7.073,-13.119 -9.774,-20.294 -0.2,-0.531 -0.402,-1.123 -0.284,-1.694 0.121,-0.587 0.543,-0.975 0.936,-1.311 5.033,-4.298 10.176,-8.381 15.42,-12.241 0.276,-0.203 0.616,-0.408 0.894,-0.21 0.225,0.16 0.306,0.517 0.364,0.839 2.376,13.051 1.944,26.64 1.499,40.03" /></g><g
           transform="translate(220.4238,322.2207)"
           id="g648"><path
             id="path650"
             style="fill:#1e976f;fill-opacity:1;fill-rule:nonzero;stroke:none"
             d="m 0,0 c 4.376,-1.208 7.629,-4.812 10.405,-8.403 4.874,-6.307 9.091,-13.12 12.563,-20.294 0.257,-0.532 0.516,-1.123 0.365,-1.695 -0.156,-0.587 -0.698,-0.974 -1.204,-1.311 -6.468,-4.298 -13.079,-8.381 -19.818,-12.241 -0.354,-0.202 -0.792,-0.408 -1.149,-0.21 -0.289,0.16 -0.393,0.518 -0.469,0.84 -3.053,13.05 -2.498,26.639 -1.926,40.03" /></g><g
           transform="translate(192.5488,326.6055)"
           id="g652"><path
             id="path654"
             style="fill:#1e976f;fill-opacity:1;fill-rule:nonzero;stroke:none"
             d="m 0,0 c 2.684,-1.078 8.142,-1.557 10.849,-0.54 0.645,0.243 1.29,0.547 1.979,0.56 0.497,0.009 0.983,-0.134 1.459,-0.277 4.186,-1.251 8.372,-2.503 12.558,-3.755 0.584,-0.175 1.203,-0.372 1.592,-0.842 0.389,-0.468 0.467,-1.113 0.531,-1.719 0.432,-4.148 0.865,-8.297 1.298,-12.446 0.38,-3.648 0.761,-7.303 0.807,-10.972 0.046,-3.649 -0.241,-7.294 -0.466,-10.937 -0.92,-14.925 -0.811,-29.89 -0.98,-44.842 -0.007,-0.63 -0.061,-1.355 -0.568,-1.728 -0.259,-0.19 -0.59,-0.248 -0.907,-0.299 -16.058,-2.547 -32.447,-0.469 -48.572,1.611 0.283,3.829 0.566,7.669 0.354,11.502 -0.199,3.572 0.614,17.684 0.341,21.25 -0.488,6.388 -1.272,2.223 -0.615,8.596 l 3.72,36.133 c 0.093,0.903 0.202,1.851 0.725,2.592 0.547,0.776 1.457,1.199 2.329,1.573 C -9.179,-2.657 -4.636,-1.137 0,0" /></g><g
           id="g656"><g
             id="g658" /><g
             id="g670"><g
               style="opacity:0.5"
               id="g668"
               clip-path="url(#clipPath662)"><g
                 id="g666"
                 transform="translate(222.3262,263.0225)"><path
                   id="path664"
                   style="fill:#06593b;fill-opacity:1;fill-rule:nonzero;stroke:none"
                   d="m 0,0 c -0.887,-4.27 -1.951,-8.802 -4.441,-12.456 -4.182,-6.134 -12.937,-6.619 -19.687,-6.996 -6.821,-0.38 -16.315,-1.064 -21.735,3.93 -1.79,1.648 -3.062,3.598 -4.012,5.716 0.003,-0.515 0.012,-0.953 0.031,-1.295 0.213,-3.833 -0.071,-7.673 -0.354,-11.502 16.125,-2.08 32.515,-4.158 48.573,-1.611 0.317,0.051 0.647,0.109 0.906,0.299 0.508,0.373 0.561,1.098 0.569,1.728 0.085,7.48 0.099,14.963 0.208,22.443 C 0.041,0.171 0.018,0.086 0,0" /></g></g></g></g><g
           id="g672"><g
             id="g674" /><g
             id="g686"><g
               style="opacity:0.5"
               id="g684"
               clip-path="url(#clipPath678)"><g
                 id="g682"
                 transform="translate(243.3916,293.5234)"><path
                   id="path680"
                   style="fill:#06593b;fill-opacity:1;fill-rule:nonzero;stroke:none"
                   d="m 0,0 c -2.993,6.186 -6.544,12.102 -10.589,17.658 1.153,-3.815 1.656,-7.888 1.89,-11.722 0.468,-7.661 -4.726,-14.1 -9.705,-19.868 5.959,3.472 11.821,7.11 17.565,10.927 0.506,0.336 1.048,0.724 1.204,1.311 C 0.517,-1.123 0.257,-0.532 0,0" /></g></g></g></g><g
           transform="translate(163.9277,291.8354)"
           id="g688"><path
             id="path690"
             style="fill:#06593b;fill-opacity:1;fill-rule:nonzero;stroke:none"
             d="M 0,0 C 0.592,1.534 1.285,3.027 2.069,4.473 2.304,4.906 1.643,5.293 1.408,4.859 0.593,3.355 -0.122,1.799 -0.738,0.204 -0.812,0.011 -0.656,-0.216 -0.471,-0.267 -0.254,-0.327 -0.075,-0.193 0,0" /></g><g
           transform="translate(221.1128,285.6831)"
           id="g692"><path
             id="path694"
             style="fill:#06593b;fill-opacity:1;fill-rule:nonzero;stroke:none"
             d="m 0,0 c 0.939,-1.787 1.802,-3.611 2.588,-5.471 0.081,-0.192 0.361,-0.23 0.524,-0.137 0.198,0.113 0.217,0.335 0.137,0.524 C 2.463,-3.225 1.6,-1.4 0.661,0.386 0.432,0.823 -0.229,0.436 0,0" /></g><g
           transform="translate(224.9331,288.1587)"
           id="g696"><path
             id="path698"
             style="fill:#06593b;fill-opacity:1;fill-rule:nonzero;stroke:none"
             d="M 0,0 C 1.039,-1.712 1.975,-3.483 2.804,-5.306 3.007,-5.753 3.667,-5.365 3.464,-4.919 2.636,-3.097 1.7,-1.325 0.661,0.386 0.406,0.807 -0.256,0.422 0,0" /></g><g
           transform="translate(229.1274,291.3354)"
           id="g700"><path
             id="path702"
             style="fill:#06593b;fill-opacity:1;fill-rule:nonzero;stroke:none"
             d="M 0,0 C 0.633,-1.83 1.415,-3.605 2.34,-5.306 2.576,-5.738 3.237,-5.353 3.001,-4.919 2.106,-3.276 1.35,-1.565 0.738,0.204 0.578,0.666 -0.162,0.467 0,0" /></g><g
           transform="translate(232.9243,293.6357)"
           id="g704"><path
             id="path706"
             style="fill:#06593b;fill-opacity:1;fill-rule:nonzero;stroke:none"
             d="m 0,0 c 0.883,-1.469 1.676,-2.99 2.376,-4.554 0.084,-0.189 0.359,-0.234 0.523,-0.137 0.195,0.113 0.223,0.334 0.138,0.523 -0.7,1.564 -1.494,3.085 -2.376,4.554 C 0.408,0.808 -0.254,0.424 0,0" /></g><g
           transform="translate(237.6924,296.1328)"
           id="g708"><path
             id="path710"
             style="fill:#06593b;fill-opacity:1;fill-rule:nonzero;stroke:none"
             d="m 0,0 c 0.798,-1.361 1.511,-2.773 2.122,-4.229 0.08,-0.19 0.253,-0.327 0.47,-0.267 0.18,0.049 0.348,0.279 0.267,0.471 C 2.223,-2.508 1.494,-1.034 0.661,0.386 0.412,0.811 -0.25,0.426 0,0" /></g><g
           transform="translate(175.186,247.8965)"
           id="g712"><path
             id="path714"
             style="fill:#06593b;fill-opacity:1;fill-rule:nonzero;stroke:none"
             d="m 0,0 c -0.218,-2.048 -0.435,-4.096 -0.653,-6.143 -0.052,-0.489 0.714,-0.485 0.766,0 C 0.33,-4.096 0.547,-2.048 0.765,0 0.817,0.489 0.051,0.485 0,0" /></g><g
           transform="translate(180.3965,241.5391)"
           id="g716"><path
             id="path718"
             style="fill:#06593b;fill-opacity:1;fill-rule:nonzero;stroke:none"
             d="m 0,0 c 0.367,2.1 0.573,4.223 0.609,6.354 0.009,0.492 -0.757,0.492 -0.765,0 C -0.191,4.291 -0.383,2.235 -0.738,0.204 -0.822,-0.278 -0.084,-0.484 0,0" /></g><g
           transform="translate(185.8032,241.0684)"
           id="g720"><path
             id="path722"
             style="fill:#06593b;fill-opacity:1;fill-rule:nonzero;stroke:none"
             d="m 0,0 c 0.154,2.276 0.309,4.552 0.463,6.828 0.034,0.492 -0.732,0.49 -0.765,0 C -0.457,4.552 -0.611,2.276 -0.765,0 -0.799,-0.492 -0.033,-0.49 0,0" /></g><g
           transform="translate(192.3579,240.6162)"
           id="g724"><path
             id="path726"
             style="fill:#06593b;fill-opacity:1;fill-rule:nonzero;stroke:none"
             d="M 0,0 C -0.198,2.334 -0.025,4.677 0.524,6.955 0.639,7.434 -0.099,7.638 -0.214,7.158 -0.779,4.817 -0.969,2.399 -0.765,0 -0.724,-0.487 0.042,-0.492 0,0" /></g><g
           transform="translate(198.1479,239.8203)"
           id="g728"><path
             id="path730"
             style="fill:#06593b;fill-opacity:1;fill-rule:nonzero;stroke:none"
             d="m 0,0 c 0.087,2.463 0.085,4.927 -0.005,7.39 -0.018,0.49 -0.784,0.493 -0.766,0 C -0.68,4.927 -0.678,2.463 -0.765,0 -0.783,-0.492 -0.018,-0.492 0,0" /></g><g
           transform="translate(204.8843,240.1592)"
           id="g732"><path
             id="path734"
             style="fill:#06593b;fill-opacity:1;fill-rule:nonzero;stroke:none"
             d="m 0,0 c 0.278,2.148 0.374,4.315 0.284,6.48 -0.02,0.492 -0.785,0.494 -0.765,0 C -0.392,4.315 -0.487,2.148 -0.766,0 -0.792,-0.207 -0.57,-0.381 -0.383,-0.383 -0.154,-0.386 -0.026,-0.204 0,0" /></g><g
           transform="translate(210.4658,239.5908)"
           id="g736"><path
             id="path738"
             style="fill:#06593b;fill-opacity:1;fill-rule:nonzero;stroke:none"
             d="m 0,0 c 0.161,2.39 0.323,4.779 0.484,7.168 0.033,0.492 -0.733,0.49 -0.765,0 C -0.443,4.779 -0.604,2.39 -0.765,0 -0.798,-0.492 -0.033,-0.489 0,0" /></g><g
           transform="translate(216.3794,246.6963)"
           id="g740"><path
             id="path742"
             style="fill:#06593b;fill-opacity:1;fill-rule:nonzero;stroke:none"
             d="m 0,0 v -6.356 c 0,-0.417 0.766,-0.418 0.766,0 V 0 C 0.766,0.417 0,0.417 0,0" /></g><g
           transform="translate(189.8643,321.4053)"
           id="g744"><path
             id="path746"
             style="fill:#06593b;fill-opacity:1;fill-rule:nonzero;stroke:none"
             d="M 0,0 C 0.875,1.001 1.688,2.056 2.436,3.156 2.552,3.327 2.468,3.58 2.298,3.679 2.109,3.79 1.891,3.713 1.775,3.542 1.064,2.496 0.291,1.494 -0.542,0.541 -0.677,0.386 -0.694,0.153 -0.542,0 -0.403,-0.139 -0.137,-0.156 0,0" /></g><g
           transform="translate(194.665,322.9302)"
           id="g748"><path
             id="path750"
             style="fill:#06593b;fill-opacity:1;fill-rule:nonzero;stroke:none"
             d="m 0,0 c -0.151,-1.251 -0.303,-2.501 -0.454,-3.752 -0.025,-0.206 0.193,-0.383 0.382,-0.383 0.228,0 0.358,0.177 0.383,0.383 C 0.462,-2.501 0.614,-1.251 0.766,0 0.791,0.206 0.572,0.382 0.383,0.382 0.155,0.382 0.025,0.206 0,0" /></g><g
           transform="translate(198.6978,322.4951)"
           id="g752"><path
             id="path754"
             style="fill:#06593b;fill-opacity:1;fill-rule:nonzero;stroke:none"
             d="m 0,0 c 0.229,-1.246 0.356,-2.506 0.385,-3.772 0.011,-0.492 0.776,-0.494 0.765,0 C 1.12,-2.438 0.98,-1.109 0.738,0.203 0.7,0.407 0.454,0.522 0.267,0.471 0.054,0.412 -0.038,0.204 0,0" /></g><g
           transform="translate(202.5645,323.4214)"
           id="g756"><path
             id="path758"
             style="fill:#06593b;fill-opacity:1;fill-rule:nonzero;stroke:none"
             d="m 0,0 c 0.682,-1.136 1.283,-2.32 1.786,-3.545 0.078,-0.191 0.254,-0.327 0.47,-0.268 0.182,0.05 0.347,0.279 0.268,0.471 C 1.995,-2.054 1.377,-0.808 0.661,0.386 0.408,0.808 -0.254,0.424 0,0" /></g><g
           transform="translate(205.981,324.9653)"
           id="g760"><path
             id="path762"
             style="fill:#06593b;fill-opacity:1;fill-rule:nonzero;stroke:none"
             d="M 0,0 C 1.365,-0.909 2.616,-1.974 3.737,-3.17 4.075,-3.531 4.615,-2.989 4.278,-2.629 3.113,-1.386 1.804,-0.284 0.386,0.661 -0.025,0.935 -0.409,0.272 0,0" /></g><g
           transform="translate(176.6934,318.6079)"
           id="g764"><path
             id="path766"
             style="fill:#ff9670;fill-opacity:1;fill-rule:nonzero;stroke:none"
             d="m 0,0 c 1.924,7.983 3.651,13.051 7.844,20.111 0.428,0.721 1.277,1.536 1.959,1.049 0.506,-0.36 0.399,-1.128 0.237,-1.728 C 9.523,17.52 9.007,15.608 8.491,13.696 8.366,13.23 8.239,12.749 8.301,12.27 8.472,10.951 9.902,10.257 11.093,9.666 12.285,9.075 13.589,7.965 13.226,6.685 13.075,6.151 12.656,5.743 12.273,5.34 9.344,2.255 7.779,-1.899 6.941,-6.07 6.103,-10.242 4.034,-20.246 3.462,-24.462 c -1.441,-10.614 -3.603,-18.496 -10.488,-23.8 -0.867,-0.668 -2.283,-0.979 -3.319,-0.625 -0.443,0.151 -0.786,0.499 -1.091,0.855 -2.57,3.008 -3.395,7.207 -3.051,11.149 0.344,3.942 1.74,7.708 3.177,11.394 C -8.594,-18.521 -3.513,-9.545 0,0" /></g><g
           transform="translate(244.5771,268.2524)"
           id="g768"><path
             id="path770"
             style="fill:#ff9670;fill-opacity:1;fill-rule:nonzero;stroke:none"
             d="m 0,0 c -1.56,6.659 -3.8,13.155 -6.642,19.376 l -11.81,-7.303 c 1.654,-3.6 3.196,-7.251 4.61,-10.952 0.644,-1.684 1.272,-3.465 1.021,-5.251 -0.191,-1.354 -0.873,-2.583 -1.555,-3.769 -5.073,-8.822 -10.83,-17.251 -17.202,-25.186 -0.37,-0.461 -0.762,-0.979 -0.732,-1.57 0.023,-0.442 0.283,-0.833 0.534,-1.199 1.074,-1.566 2.148,-3.133 3.222,-4.698 0.185,-0.271 0.419,-0.569 0.746,-0.578 0.31,-0.01 0.557,0.247 0.76,0.482 5.143,5.988 10.287,11.977 15.431,17.965 3.777,4.396 7.581,8.832 10.384,13.906 0.835,1.51 1.59,3.119 1.717,4.839 C 0.582,-2.613 0.303,-1.293 0,0" /></g></g></g></g></svg>