<?xml version="1.0" encoding="utf-8"?>
<!-- Generator: Adobe Illustrator 21.0.0, SVG Export Plug-In . SVG Version: 6.00 Build 0)  -->
<svg version="1.1" id="Capa_1" xmlns="http://www.w3.org/2000/svg" xmlns:xlink="http://www.w3.org/1999/xlink" x="0px" y="0px"
	 viewBox="0 0 120.9 121.9" style="enable-background:new 0 0 120.9 121.9;" xml:space="preserve">
<path d="M46,12.8c7.7-8.6,16.6-9.1,23.4-2c11,11.6,5.2,25.7-1.3,36.2c-4.9,8.1-10.7-1.9-15.1-5.6C43.7,33.5,36.6,24.6,46,12.8z"/>
<path d="M83.4,16c2.2-8.1,8-11.3,15.9-11c6.5,0.4,11.1,4.2,12.7,10.6c1.7,7.6-1,14-8.3,17.3c-7.6,3.4-15.2,7.5-26,8
	C79.8,31.6,81.4,23.6,83.4,16z"/>
<path d="M78.7,65.1c-1.3-3.5-13.6-7.7-4.8-13.7c10.8-7.7,25.2-12.2,37.8-2.4c8.9,6.6,7.6,17.7,0.5,23.9
	C100.4,84.4,89.1,78.6,78.7,65.1z"/>
<path d="M67.7,60.6c14.7,18.8,38.9,24.8,27.6,49.7c-4.2,9.6-15.4,12.2-23.5,6.6C49,101.6,67.7,83.6,67.7,60.6z"/>
<path d="M60.6,58.6c-5.5,21.3,5,45-22.9,51.6c-10.6,2.2-20.1-4.5-20.6-14.9C16,67.1,40.5,68.3,60.6,58.6z"/>
<path d="M60.9,54.8C39.7,59.3,23.2,76.1,6.5,55c-6.7-8.4-3.1-19,5.5-23.3C35.5,19.1,43.3,42,60.9,54.8z"/>
</svg>
